<?xml version="1.0" encoding="utf-8"?>
<!-- Generator: Adobe Illustrator 23.1.0, SVG Export Plug-In . SVG Version: 6.00 Build 0)  -->
<svg version="1.1" id="Layer_1" xmlns="http://www.w3.org/2000/svg" xmlns:xlink="http://www.w3.org/1999/xlink" x="0px" y="0px"
	 viewBox="0 0 505.1 165" style="enable-background:new 0 0 505.1 165;" xml:space="preserve">
<style type="text/css">
	.st0{opacity:7.000000e-02;}
	.st1{fill:#6E7171;}
</style>
<g class="st0">
	<path class="st1" d="M12.9,32.6c-0.1,1.1-1.9,3.7-5.3,8c-0.4,0.8-1,1.2-1.8,1c-1.1,0-2.1-0.4-3.1-1.2c-0.4-0.4-1.2-1.7-2.4-3.9
		C0.1,34.3,0,33,0,32.4c0.4-3.9,2.2-5.7,5.5-5.3c0.8,0.1,1.8,1.3,3.1,3.5c0.1,0.1,0.3,0.1,0.5-0.1c0.2-0.2,0.4-0.3,0.7-0.3
		c0.4,0,1,0.3,1.8,0.9S12.9,32.2,12.9,32.6z M150.6,26.1c-1.4,0.8-2.1,1.8-2.2,2.9c0,0.5,0.1,1.1,0.4,1.6c-0.7,0.3-1.6,0.9-2.7,1.8
		c0-0.1-0.1-0.3-0.2-0.6c-2.7,1.6-4.1,3.9-4.1,6.9c1.1-1,2.7-2.5,4.7-4.7l-0.2,1l1.2,0.2c0.4-0.1,0.7-0.2,0.8-0.2
		c-1.5,0-2.9,1.6-4.3,4.7c0,0.3,0.1,0.6,0.2,1c-2.9,4.9-4.3,7.9-4.3,9c0.4,0.1,0.8,0,1.2-0.4c0.4-1.1,2.2-3.5,5.5-7.3
		c-1.5,2.4-3.1,5.2-4.7,8.2c-3.1,6.1-4.8,9.9-4.9,11.4c0,0.3-0.2,0.9-0.7,1.7c-0.5,0.9-0.8,1.6-0.9,2.1c0,0.5,0.1,1.3,0.4,2.2
		l-0.6-0.4c0.3,0.3,0.4,0.6,0.4,1c0,0.3-0.2,0.6-0.6,1v0.4c-0.1,0.1-0.1,0.3,0.2,0.4l0.8-1.4c0.7,1.1,0.9,1.8,0.8,2.2
		c0,0.8-1.4,3.5-4.1,8c-0.1,0-0.2,0.4-0.2,1.2l-0.8-0.6v0.2c0,0.1,0.1,0.3,0.2,0.4c0.1,0.1,0.2,0.4,0.2,0.8c-0.1,0.4-1,2.7-2.7,6.7
		c-0.7-0.1-1.2-0.1-1.6,0c-0.1,0.5,0,0.8,0.4,0.8c0.3,0.1,0.6,0,1-0.4c-0.3,0.5-0.8,1.4-1.6,2.4c0.5,0.5,1.1,1.3,1.6,2.2l-11.6,26.1
		c-6,13.7-11.8,23.3-17.5,28.6c0,0.7-0.7,2-2.2,3.9c-0.7,0.3-1.6,0.9-2.9,1.8c-0.3,0-0.6-0.2-1.1-0.7c-0.5-0.5-0.9-0.7-1.1-0.7
		c-0.3,0-0.5,0.1-0.8,0.4c-0.3,0.3-0.5,0.4-0.8,0.4c-0.8,0-1.8-1.2-3.1-3.5c-0.7,0.3-1,0.7-1,1.4c0.1,0.7,0.1,1.2,0,1.6
		c-0.1-0.4-1.1-0.5-2.9-0.4c0.3,0.8,0.9,2.1,1.8,3.9c-6.9-3-10.2-4.5-9.8-4.5c-0.3,0-0.4,0.1-0.4,0.4c0,0.3-0.2,0.4-0.6,0.4
		c0.1,0,0.1-0.2-0.2-0.6c-3.9-1.2-6.8-1.8-8.6-1.8c-1.2-0.5-2.1-1.8-2.7-3.7c-0.1-0.3-0.5-0.5-1.2-0.8c-2.4-4.6-4.2-7-5.3-7.1
		c0-0.1,0.1-0.3,0.4-0.6l0.4-0.6c0.3-1.6-0.2-2.5-1.4-2.7c-1-0.1-2,1.1-3.3,3.7c0.1,0.3,0.2,0.7,0.2,1.2c-0.3,0-2.2,2-5.7,6.1
		c-3.5,4.1-5.8,6.1-6.9,5.9c0.4,0.1-0.5-0.4-2.7-1.6c-0.5,0-1.3-0.1-2.2-0.4c-1-0.3-1.7-0.4-2.2-0.4c-0.8,0.8-1.4,2-1.6,3.5
		c-0.4,0.7-1.4,0.9-2.9,0.6c-3.8-0.3-6.3-2.4-7.3-6.3l-3.7-4.1c-1.5-2.7-3.1-5.4-4.7-8c-1.8-3.5-2.9-6.4-3.5-8.6
		c-2.6-10.5-4.4-21.5-5.5-33l0.2-2.4c0-0.9-0.5-1.7-1.4-2.2c-0.4,8.7,0.3,16.7,2.2,23.9c-1.1-0.1-1.7-0.5-1.8-1.2
		c-0.5-1.8-1-3.9-1.4-6.5c-1.5-8.4-1.7-17.7-0.6-27.7c0.3-3,1.3-5.6,3.1-8c-0.1,0.3-0.1-0.1,0-1c0.3,0.4,0.5,0.6,0.8,0.6l0.8-0.4
		c-0.4-0.3-0.8-0.9-1.2-2c0.5,0,0.9-0.1,1.2-0.4c0.3,0.8,0.7,1.9,1.2,3.3l0.8,0.2c0.3,0.3,0.5-0.3,0.6-1.6c-1.2-1.2-1.8-2.3-1.6-3.3
		c0.1,0,0.3-0.1,0.5-0.4C8.3,63,8.5,62.9,8.8,63c0.5,0,1.2,1,2,2.9c0.1-0.1,0.2-0.4,0.2-0.8c0.3-2-0.3-3.9-1.6-5.7
		c-0.1,0-0.3,0-0.5,0.1c-0.2,0.1-0.4,0.1-0.7,0.1c-0.4,0-1-0.8-1.8-2.5c-0.8-1.7-1.2-2.8-1-3.4c0-0.3,0.1-0.5,0.3-0.7
		s0.3-0.4,0.3-0.5h1.2c1,0.5,1.6,1.5,2,2.9c0.1,0.7,0,1.7-0.4,3.1c0.1,0.4,0.5,0.8,1,1.2c0.3-0.7,0.7-1,1.4-0.8
		c0.4,0.1,1.1,0.7,2,1.8c0.1-0.7,0.5-1.7,1-3.1c1.1,1.1,1.8,2,2.2,2.7c0.7,0.1,1.2,0.1,1.4,0c-2.7-4.8-4-7.8-3.9-9.2
		c0.1-1,0.9-2.2,2.2-3.9c1.4-1.6,2.5-2.4,3.5-2.2c0.7,0,1.6,0.6,2.7,1.8c1.1,1.2,1.6,2.2,1.4,2.9c0,0.5-0.3,1.4-0.9,2.7
		S22,54.3,22,54.9c0.1,0.3,0.5,1.2,1.2,2.7c3.3-0.7,4.9-1.4,4.9-2.2c0,1.1-0.3-0.1-0.8-3.5c0.1,0,0.4-0.1,0.7-0.2
		c0.3-0.1,0.6-0.1,0.9,0c1.4,0.1,2.2,2.8,2.7,8c-0.5,13.1,0.5,27.4,3.3,43c0.3,0.4,0.7,1.2,1.2,2.2c0.3,0,0.5-0.1,0.6-0.4
		c0-0.1-0.1-0.3-0.4-0.6c1.2-1.5,1.7-2.5,1.4-3.1l0.8,1c0.5-0.7,0.9-1.2,1-1.6c-0.1-0.3-0.3-0.4-0.4-0.4c0.4-0.4,0.6-0.9,0.6-1.4
		c0.5-0.8,1.6-2.7,3.3-5.5c-0.1,0.3-0.5-0.1-1.2-1c0.5,0.1,0.9,0.3,1,0.4c0.3-0.3,0.7-0.7,1.2-1.4c0-0.1-0.1-0.3-0.2-0.6
		c0.8-1.1,1.4-2.3,1.6-3.7c1.4-1.5,2.2-2.8,2.4-3.9c0,0.1,0.1,0.3,0.4,0.4c0.8-0.5,1.4-1.5,1.6-2.9c0-0.5,0.1-1.4,0.2-2.7
		c0.8-0.3,1.3-1.1,1.5-2.3c0.2-1.3,1-2.3,2.3-3.2c1.4-0.8,2.2-1.4,2.7-1.8c0.1-4.4,1-8.9,2.7-13.7c0.4-1.2,1.4-2.6,3.1-4.1
		c1.6-1.5,3-2.2,4.1-2c1.2,0.1,2.4,1.3,3.5,3.5c0.4-0.3,1.1-0.3,2-0.2c-0.3-0.1,0.1-0.4,1-0.8l2-2.9l3.1,1.4c0.4,0,1.1-0.1,2-0.4
		c1.2,2.7,1.8,6.5,1.6,11.2l-0.2,11.2c-0.1-0.4-0.3,0-0.4,1.2c0.1,0.3,0.3,0.4,0.4,0.4c0.4-0.4,0.7-0.9,0.8-1.6c0-0.4-0.1-1.1-0.4-2
		c0.3-0.3,0.7-0.3,1.2-0.2c0-0.7,0.1-1.6,0.4-2.9c0.3-1.2,0.5-2.2,0.6-2.9c0,0.5,0.2,1.3,0.6,2.2c0.1-0.4,0.6-1.6,1.4-3.7
		c0,0.1,0.1,0.2,0.2,0.2c0.3,0.1,0.5,0.1,0.8,0l-2.9,25.3c0-0.8-0.1-2.1-0.4-3.9c-0.4,0.5-0.7,1.4-0.8,2.4c-0.1,1.4,0,3,0.4,4.9
		c0.7-1.6,1-2.7,1-3.1L84,106.9c-0.1,2.2-0.3,5.4-0.4,9.8c4.9-5.7,9.9-14.3,14.9-25.9c7.1-16,11.2-25.2,12.4-27.5
		c0.7-1.4,1-2.5,1-3.5c0.7-0.1,1.1-0.4,1.2-0.8c0-0.1-0.1-0.4-0.2-0.8c1.6-2.4,3.7-6.1,6.1-11c0,0.4,0.3,1,1,1.6c0.3,0,0.5,0,0.6,0
		c0.8-1.2,2-2.9,3.5-4.9c-1,3.3-2.7,6.7-5.1,10.4l0.4,1c-1.1,0.3-2,1.2-2.7,2.9c-0.3,0.7-0.4,1.3-0.4,1.8c-0.1,0.5,0,1,0.4,1.4
		c-0.1,0-0.4-0.3-0.8-0.8c-0.1,0.5-0.7,1.3-1.6,2.2v1.6c1.6-0.7,2.4-1.1,2.2-1.2c-0.5-0.4-0.8-0.7-0.8-1l0.8,0.2
		c-0.3,0,0.3-0.2,1.6-0.6c-0.4-0.5-0.5-0.8-0.2-0.8l0.2-0.2l0.2-0.8c0.1-0.3,1.7-2.9,4.7-7.8c0.4-1,0.3-1.5-0.2-1.6
		c0.4-0.1,0.9-0.6,1.4-1.4c0.4-1.5,1.3-3.7,2.7-6.5c1.6-1.5,3.2-3.3,4.7-5.3c0.4-0.4,1.8-2.1,4.1-5.1l2-2.4c-0.1,0.7-0.1,1.1,0,1.2
		c0.5-0.5,1.4-1.4,2.7-2.4l1.2-2.4c-0.1,0.1-0.1,0.3,0.2,0.6c0.4-0.5,0.8-1.2,1.2-1.8c0,1.6-0.5,3.2-1.6,4.7
		c0.1,0.1,0.3,0.2,0.6,0.2c0.4-0.4,1.5-1.5,3.3-3.3c-5.8,7.8-11.1,15.2-15.7,22.4c-0.4,0.8-0.5,1.6-0.4,2.4l13.1-17.5
		c0.5-0.8,1.2-1.7,1.8-2.7c-0.3,0-0.2,0.3,0.2,0.8c1.8-2.6,2.6-4.3,2.4-5.1c0.1,0,0.4,0.3,0.8,0.8c0.4-0.3,0.9-0.6,1.6-1
		c0.1-0.5,0.5-1.2,1.2-1.8L150.6,26.1L150.6,26.1z M29.4,18.8c-0.1,1.9-3.2,4.4-9.2,7.3c-1.5-1.4-2.9-2.1-4.1-2.2h-0.6
		c0,0.1-0.1,0.2-0.4,0.2c-3.8-0.4-5.4-3.8-4.7-10.2c0.4-3.5,1.8-5.2,4.1-4.9c0.8,0.1,1.4,0.3,1.8,0.6c3-4.4,5.2-6.5,6.7-6.3
		c1.9,0.3,3.3,1.5,4.3,3.7l1.8,5.9L29,16.1c0,0.1,0.1,0.5,0.2,1.2C29.3,18,29.4,18.5,29.4,18.8z M17.5,40c-0.1,1.2-1.2,1.8-3.1,1.6
		c-1.1-0.1-2-1.1-2.9-2.9c0.7-0.8,1.5-1.2,2.4-1C16.5,37.9,17.7,38.6,17.5,40z M13.3,67.3h-0.6L12,68.1l0.6,0.4L13.3,67.3z
		 M13.5,85.3c0-1.8,0.1-4.1,0.2-7.1c-0.3-0.4-0.7-1-1.2-1.8l-0.2,1.8c0,1,0.3,2,0.8,3.1C12.4,83,12.5,84.3,13.5,85.3z M13.7,62.6
		h-0.6l-0.4,1l0.6,0.2L13.7,62.6z M13.5,65.1v-0.8h-0.4l-0.2,0.8C12.9,65.1,13.5,65.1,13.5,65.1z M18.4,80.8L18,80.6l-0.4,0.8
		l0.4,0.4L18.4,80.8z M24.5,146.1l-1-0.2v-0.6l1,0.2V146.1z M27.7,74.1l0.2-2.9c-0.3-0.1-0.5-0.3-0.8-0.6c0,0.4-0.1,1.6-0.4,3.5
		l-0.4,0.2c0,0.3,0,0.6,0,1C26.5,75,26.9,74.6,27.7,74.1z M32,39.2c-3,1.4-4.2,2-3.7,2c-1.5-0.1-2.1-1.4-1.8-3.9
		c0.1-1.8,0.8-2.6,2-2.4c1,0.1,2.2,0.8,3.7,2L32,39.2z M28.8,59.2v-0.8l-0.6-0.2V59L28.8,59.2z M51.4,22c-0.5,0.5-0.9,0.8-1,0.8
		c0.4,0-0.7-0.6-3.5-1.8c0-0.5,0.1-1.6,0.4-3.3c1.1,0.4,2.5,1,4.3,1.8L51.4,22z M55.1,72.4l-0.4-0.2l-0.4,1l0.4,0.2L55.1,72.4z
		 M66.1,56.7c0.3-2.2,0.3-3.4,0-3.7c-1.1,1-1.7,1.8-1.8,2.4c0,0.4,0.1,0.8,0.2,1v0.4c0.1,0,0.4,0,0.8-0.1
		C65.7,56.7,66,56.7,66.1,56.7z M78.7,121.6l1.6-26.5c0,0.4-0.1,1.1-0.3,2.1s-0.4,1.7-0.5,2.1L78.7,121.6z M81,93.2h-0.6l-0.4,1
		l0.6,0.2L81,93.2z M81.2,92h-0.6l-0.4,1l0.4,0.2L81.2,92z M81.6,87.9c-0.3-1.4-0.3-2.3-0.2-2.9c-0.4,3.1-0.5,5-0.4,5.5
		C81,90.2,81.2,89.3,81.6,87.9z M82,82.2l0.4-4.1c-0.8,1.4-1.2,2.2-1.2,2.7C81.3,81.1,81.6,81.5,82,82.2z M82.8,76.7l-0.6-0.2
		l-0.4,0.6l0.6,0.4L82.8,76.7z M83,111.2l0.4-3.1h-0.6l-0.4,3.1H83z M83.2,113.4l0.2-1.2h-0.6l-0.2,1.2H83.2z M83.4,117.1l-0.4,1.4
		l-0.4-0.2l0.4-1.2H83.4z M83.4,106.5l0.2-2.9H83l-0.2,2.9H83.4z M83.6,100.2l0.2-1.2h-0.6l-0.2,1.2H83.6z M84.3,84.7l0.2-2.7h-0.6
		l-0.2,2.4L84.3,84.7z M103.8,91.2c-0.4,0-0.7-0.2-0.8-0.6c0.7-1.6,1.1-3.3,1.2-4.9c-0.8,1.4-1.8,3.3-3.1,5.7
		c0.3,0.8,0.3,1.4,0.2,1.8c0,0.5-0.3,1.1-1,1.6l-0.2,2.2c0.8-0.4,1.6-1.5,2.3-3.2C103.3,92.2,103.7,91.3,103.8,91.2z M103,147.5
		c-0.4,0.5-1,0.7-1.8,0.6c0.1,0.1,0.2,0.4,0.2,0.8C102.5,148.6,103,148.2,103,147.5z M104.4,146.3l-1,1l-0.2-0.4l0.8-1L104.4,146.3z
		 M110.8,77.1c0-0.3-0.1-0.5-0.2-0.8c-0.1-0.3-0.2-0.5-0.2-0.6c-0.3,0-0.5,0.1-0.6,0.4c0.1,0.8-0.3,1.4-1.2,1.8
		c-0.4,1.9-1.4,4.2-2.9,6.7c0-1.1-0.1-1.9-0.2-2.4c0,0.4-0.2,0.9-0.5,1.5c-0.3,0.6-0.5,1.1-0.5,1.5l1-0.4c0.3,0.3,0.4,0.6,0.4,1
		C109,80.4,110.6,77.5,110.8,77.1z M106.7,81.2l0.2-1l-0.4,0.2c-0.3,0.1-0.4,0.3-0.4,0.4C106.1,81.1,106.3,81.2,106.7,81.2z
		 M112.2,69.4l-0.4-0.2l-0.6,1.8h0.6L112.2,69.4z M114.2,70.2c0-0.1,0-0.4-0.1-0.7c-0.1-0.3-0.1-0.6-0.1-0.7c-0.3,0.4-0.7,1-1.2,1.6
		C113.2,70.1,113.7,70,114.2,70.2z M114.9,65.9h-0.6l-0.6,1.6l0.6,0.2L114.9,65.9z M126.7,57.1h-0.4l-0.4,1l0.2,0.4L126.7,57.1z
		 M128.9,42.4l-0.2-0.6l-1.4,1.2l0.4,0.2L128.9,42.4z M128.3,89.6l-0.4-0.4l-0.4,0.2l0.4,0.6L128.3,89.6z M130.6,83.6
		c-0.7,1-1.2,1.6-1.4,2h0.6C130.2,84.7,130.4,84,130.6,83.6z M133.8,69l-0.6-0.2l-0.6,2.2h0.4L133.8,69z M134,21.4l-0.8,0.8
		l-0.4-0.2l0.6-1L134,21.4z M135,68.1v-1.4h-0.6v1.4H135z M137.7,73.6l-1,1.4l-0.4-0.2l1-1.2H137.7z M137.5,65.7l-1,0.2v-0.4
		l0.8-0.4L137.5,65.7z M140.6,18.6c-0.7,1.5-1.3,2.7-1.8,3.5c-0.1-0.3-0.2-0.6-0.2-1C138.5,20.6,139.2,19.8,140.6,18.6z M141.4,23.3
		h-0.6v-1h0.6V23.3z M143.4,16.1l-1.8,2l-0.4-0.4l1.8-2L143.4,16.1z M142.4,24.3l-1.2,1c0-0.5,0.3-1.3,1-2.2
		C142.2,23.6,142.3,24,142.4,24.3z"/>
	<path class="st1" d="M233.8,85.9c0,2.4-1,6.1-3.1,10.8c-0.8,2.3-2,6-3.5,11c-1.6,1.8-3.9,4.8-6.9,9l1-2c0.8-1.5,1.1-2.4,0.8-2.7
		c-1.1,1.5-2.6,3.9-4.5,7.3c-0.8,0.7-2,2-3.7,3.9c-0.8,1.5-2,3.7-3.5,6.5c-3.5,5-7.5,9.1-11.8,12.2c-7.5,5.6-12.4,8.4-14.9,8.4
		c-0.4,0-1-0.1-1.8-0.4c-0.8-0.3-1.4-0.4-1.6-0.4c-1.1,0-2.6,0.2-4.6,0.7c-2,0.5-3.5,0.7-4.6,0.7c-4.1,0-8.4-2.2-13.1-6.5l-4.1-0.8
		c-0.1,0.4-0.2,1-0.2,1.6c0,0.7,0.1,1.5,0.2,2.4c-1.4-1.8-3.2-4.1-5.5-6.9c-0.1-0.7-0.5-1.9-1-3.7c-0.4-0.3-0.8-0.5-1.2-0.8
		c-0.3-1.8-0.7-4.5-1.2-8.2c0.7-0.8,1-1.4,1-1.8c-1.4-3.1-2.2-5.8-2.7-8c0.4-0.4,0.4-4.1,0-11c1.2-9.9,3.7-19.7,7.5-29.4
		c1.5-4.2,4.4-8.6,8.8-13.3c4.6-5.4,8.8-8.6,12.4-9.4c0.5,0,3.1-1.1,7.8-3.3c-9.4,3.8-16.9,9.7-22.4,17.7c-0.1,0.1,0,0.4,0.4,0.8
		l1-0.8c-1.8,1.9-3.2,4.2-4.3,6.9l0.8,0.4c4.2-5.8,11.1-12,20.6-18.6c-0.4,0-1.6,0.3-3.5,1c8.7-5.2,15.4-7.7,20.2-7.5
		c-0.1,0-0.4,0.2-0.8,0.6c0.4,0.3,0.9,0.4,1.4,0.4c0.7,0,1.7-0.1,3.1-0.4c1.4-0.3,2.4-0.4,3.1-0.4c0.4,0,1.3,0.5,2.8,1.4
		c1.4,1,2.3,1.4,2.6,1.4c0.5,0,0.8-0.1,0.7-0.3c-0.1-0.2,0-0.3,0.3-0.3c0.4,0.1,1,0.6,1.7,1.3c0.7,0.7,2.8,3,6,6.6
		c0.5,1.2,1.9,2.9,4.1,4.9l0.8-0.8c-1-0.4-1.3-0.9-1.1-1.6c0.2-0.7,0-1.2-0.5-1.6c2.2,0,3.8,0.5,4.9,1.4c0.8-1,1.2-1.6,1.2-1.8
		c0.5,1.5,1.6,3.1,3.3,4.7c0.9,1.1,2.4,4.6,4.3,10.4c0,0.5,0.1,1.4,0.2,2.7c0.3,0.5,0.9,1.1,1.8,1.6
		C233.4,83.4,233.8,84.7,233.8,85.9z M164.4,64.3l-2.7,2.9l-0.2-0.6l2.4-2.4L164.4,64.3z M167.7,62.2l-2.7,2l-0.2-0.8l2.4-1.8
		L167.7,62.2z M200.1,81.8c-1.4-2-2.2-3.6-2.4-4.7c-1.8,1.2-4.6,3.5-8.6,6.9c0.1-0.8,0.7-1.8,1.6-3.1c-6.3,7.8-10.8,16.4-13.7,25.9
		c-0.5-0.8-0.9-1.2-1-1.2c-1,0-1.9,1.6-2.8,4.9c-0.9,3.3-1.3,5.6-1.3,6.9c0,2.7,0.6,6.3,1.8,10.6c5.4-1.5,10.7-5.5,15.7-12
		c5-6.5,7.5-12.4,7.3-17.7c0.5,0.3,0.9-0.1,1.2-1.2l0.6-1.4c-1.1-0.4-2.2-0.9-3.5-1.4c0.1-0.7,0.2-1.2,0.2-1.6
		c0-1.4-2.2-2.6-6.5-3.7l5.1-0.2c0.7,0.3,1.6,0.9,2.9,1.8c0.1-0.4,0.3-0.9,0.6-1.4c-0.8,0-1.3-0.1-1.4-0.2c0.7-0.7,0.9-1.2,0.8-1.6
		c-0.5-0.4-1.3-0.9-2.2-1.6c2-0.7,3.4-1.6,4.1-2.7c-0.4-0.5-1-1.2-1.6-1.8c0.4,0,0.9,0.1,1.6,0.3C199.4,81.7,199.8,81.8,200.1,81.8z
		 M182,52h-1.2v-0.8h1.2V52z M190.7,52.2c-1.5,0.4-4.6,1.4-9.2,3.1h1.8C184.2,55.4,186.7,54.4,190.7,52.2z M184.6,51h-1.2v-0.8h1.2
		V51z M193.6,94.9h-1V94h1V94.9z M229.9,61.4h-0.8v-1.8h0.8V61.4z"/>
	<path class="st1" d="M230.1,38.8c1.9-0.8,3.4-1.4,4.5-1.8c0.1,1.6,0.2,2.7,0.2,3.3c-2.7,1.1-3.9,1.6-3.5,1.6c-0.1,0-0.5-0.2-1-0.6
		L230.1,38.8z M235.4,88.5l0.2-0.8l-0.2-2c1.5-3.5,2.9-5.4,4.1-5.5c0.9,0,1.8,0.6,2.7,1.8c0.3,0.8,0.7,1.6,1.2,2.2
		c0.3-0.1,0.7-0.2,1.2-0.2c1.4,0,2.1,1,2.2,3.1c0.1,3.9-1,5.9-3.3,5.9c-0.1,0-0.2-0.1-0.2-0.2L243,93c-0.7,0-1.6,0.4-2.7,1.2
		c-3.5-2.6-5.3-4.1-5.3-4.7C235,89.3,235.1,88.9,235.4,88.5z M239.7,132.4l-2.2,7.5l0.4,0.2l2.4-7.8H239.7z M317.6,66.5
		c-0.4-1.6-0.4-2.6,0-2.9c-1.1-3.9-1.9-6.9-2.4-9c-1.9-1.5-3.1-2.3-3.7-2.4c-0.4,1-0.6,1.7-0.6,2.2h-0.4c-1.1-1.8-2-2.6-2.7-2.4
		l-2.4,1.4c-0.3-0.4-0.5-0.7-0.6-0.8c-2.7-1.6-4.5-2.4-5.3-2.2c-0.8,0-3.3,2-7.3,5.9c-0.7,0-1.2-0.3-1.6-0.8c0,0.7-0.1,1.2-0.4,1.4
		l-1.2,0.2c-0.3,0-0.4-0.1-0.3-0.3c0.1-0.2,0-0.3-0.3-0.3c-0.7,0-1.4,0.7-2,2.2v1.8c0,0.7-0.1,1.2-0.4,1.6c1.2-1.8,2.1-3.1,2.6-3.9
		l0.2,0.4c-5,8.8-9.1,15.6-12.2,20.2c-0.1-1.8-0.1-4.2,0-7.3c-0.1-0.1-0.2-0.3-0.2-0.4c0.4-3.7,0.4-6.7,0-9.2
		c-0.1,0-0.2,0.1-0.3,0.2c-0.1,0.1-0.2,0.2-0.5,0.2c-0.5,0-0.8-0.8-0.6-2.4l0.4-2.4c-3-3.3-5.2-4.5-6.7-3.7c2.7,1.4,4,2.4,3.9,3.3
		c1.1,0.3,1.7,1.2,1.8,2.7c0,0.5-0.1,1-0.2,1.2c-1.4-2.7-2.8-4.3-4.3-4.7c0,0.1,0.1,0.3,0.2,0.6c0.1,0.3,0.2,0.5,0.2,0.6l0.6-0.2
		c0.7,0,1.4,0.7,2.2,2l-1.6,0.8c-2.9-3.1-4.6-4.8-5.1-4.9c0.3-0.4,0.4-0.9,0.4-1.4c-2.3,1.5-4.5,2.4-6.5,2.9
		c-1.5,0.7-2.6,1.2-3.3,1.4c-0.1,0.5-0.2,1-0.2,1.4c-0.5,1.1-1.3,1.9-2.2,2.4c-1.2-0.4-2.2-0.7-2.9-0.8c0-0.1-0.2-0.1-0.6,0.2
		c0.3,0,0.4,0.1,0.4,0.4c-0.7,1.9-1.1,3-1.2,3.3c0.1-0.1,0.4-0.3,0.9-0.4c0.5-0.1,0.8-0.3,0.9-0.4c0.1,0.1,0.1,0.3,0,0.4
		c-1.5,1.9-2.2,3.1-2.2,3.5c-1.1,0.5-1.9,1.1-2.4,1.6l0.8-0.6c0.4,0.4,0.7,0.8,0.8,1c-0.1,0.3-0.1,0.6,0,1c0.5-1.5,0.9-2.4,1.2-2.7
		c0.3,0.5,0.2,1-0.2,1.4c0.7-0.1,0.9,0.5,0.8,1.8c0.9,4.2,1.5,6.6,1.6,7.1c0.1,0.8-0.1,2.7-0.8,5.7c0.1-0.1,0.4,0.1,0.8,0.8
		c-1.1,6-1.8,10-2.2,12c-1.8,9.5-3.1,15.5-3.9,18c-1.5,4.2-2.2,7.5-2.2,10c0,0.1-0.1,0.5-0.3,1c-0.2,0.5-0.3,1-0.3,1.2
		c0,0.5,0.1,0.8,0.4,0.8l5.7-17.7L244,132c0.9-3.3,1.7-5.6,2.2-6.9c0,0.3-0.8,3.2-2.2,8.8c0-0.3,0.3-0.5,0.8-0.6l-2.4,6.1
		c-0.1-0.8,0-1.9,0.5-3.3c0.5-1.4,0.6-2.2,0.5-2.4c-1,3.4-1.5,5.4-1.6,5.9c0-0.1,0.1-0.3,0.2-0.4c0.1,0.8-0.7,4.1-2.4,10l-0.4-0.6
		c0.1,2.2-0.1,3.6-0.6,4.3c0.7-1.1,1.2-1.9,1.6-2.4c0.1,0.4,0.2,0.7,0.2,0.8c-0.1-1.1,0.3-2.5,1.2-4.3l0.4,0.6
		c0-0.1,0.1-0.3,0.2-0.6c0.1,0.8,0,1.8-0.3,2.9c-0.3,1.1-0.5,1.8-0.5,2.2c0.5-1.5,0.9-2.5,1.2-3.1c0.4,0.4,0.6,0.7,0.6,0.8
		c-0.7,1.8-1,3.1-1,3.9c1.6-3.3,2.5-5,2.7-5.3c8.3-21.9,12.4-32.9,12.4-33c2.6-8.3,4.8-16,6.5-23.3c1,1,1.4,1.3,1.4,1
		c-4.8,18-7.2,27.1-7.3,27.5c-3.3,12.2-6.8,22-10.6,29.4c0.4-0.3,0.6-0.2,0.6,0.2v1.2c0.5-1.8,1.3-3.3,2.2-4.5
		c0.3,0.1,0.3,0.3,0.2,0.4c-1,2.9-1.8,4.6-2.4,5.3c-1.9,3.8-3.1,6.8-3.7,9c0.8-1.6,1.4-2.8,1.8-3.5c0.1,0,0.1,0.1,0,0.4
		c0,0.1,0.1,0.2,0.4,0.2c0.3-0.1,1.5-2.6,3.7-7.3c3.4-7.3,5.2-11.1,5.3-11.4c0.1,0.1,0.2,0.4,0.2,0.8c0.1,1-1.4,5-4.7,12
		c0.8-1.1,1.6-2,2.2-2.9c0.1-0.4,0.3-0.5,0.4-0.4c0.4-0.3,0.7-0.3,1,0c-1.2,3.1-2,5.6-2.4,7.3c1.5-2.6,3.1-6.1,4.9-10.4l-0.6,0.6
		c0-0.4,0.4-1.5,1.2-3.3c0.3,0.3,0.4,0.5,0.4,0.6c0.3-2.2,0.6-3.7,1-4.7c0.4,0.4,0.5,0.7,0.2,1c3.1-6,4.7-10.5,4.7-13.5
		c1.4-2.2,2-3.8,2-4.9c0-0.4-0.2-0.7-0.6-1c0.5-0.4,0.9-0.7,1-0.8c0.1-1.2,0.4-2,0.8-2.2l-0.2-1.4c-0.3-0.5-0.2-1.2,0.2-1.8l0.6,0.4
		c0.5-1.5,1-2.6,1.2-3.3c-0.5,0.7-1,1.1-1.4,1.2c0-1.6,0.4-2.7,1.2-3.1c0.3,0.4,0.4,0.8,0.4,1.2c2.6-9.4,4.6-14.6,5.9-15.5l0.6,0.6
		c0.3-0.3,0.7-0.4,1.4-0.4c0.1-1.1,0.5-2.2,1-3.3c0.3,0.1,0.3,0.3,0.2,0.4c-0.3,1.6-0.7,3.1-1.2,4.3c-0.3-0.3-0.3-0.4-0.2-0.4
		c0.4,0.4,0.6,0.8,0.6,1.2s-0.2,1.2-0.7,2.3c-0.5,1.2-0.6,2-0.3,2.6c1.4-2.7,2.2-4.2,2.4-4.5l0.4,0.4c-0.1,1.6-0.2,2.9-0.2,3.7
		c1.2-2.6,2.2-4.2,2.9-4.9l0.4,0.4c-0.3,0.8-0.3,1.8-0.2,2.9c0.9-1.2,1.6-2.2,2-3.1c0.7,1,1.4,1.4,2,1.4c0.5-0.9,0.9-1.7,1-2.2
		c0.3,0.3,0.3,1.2,0.2,2.7c2-3.9,3.3-6.3,3.7-6.9c0.1,0.1,0.3,0.5,0.4,1c1.8-3.1,2.8-5,3.1-5.5c0.1,0.3,0.2,1,0.2,2.2l0.6-0.6
		c0.3,0.3,0.5,0.4,0.8,0.4c0.3,0,1.6-1.9,3.9-5.7c2.3-3.8,3.6-5.7,3.9-5.7h0.8h0.4l0.4-1.6c0-1.1,0.3-1.6,1-1.6
		c0.4,0,1.2,0.2,2.4,0.7c1.2,0.5,2,0.7,2.4,0.7c0.3,0,0.6-0.3,1-0.8c-0.1-0.8-0.1-1.3,0.2-1.4c0.8,1.1,1.2,2,1.2,2.7
		c0.1-1.6,0.3-2.9,0.6-3.7c0.4,1,0.7,1.7,0.8,2.2l-0.6,0.8h1.6c-0.1-2.9-0.1-4.6,0.2-5.3c0.8-1.5,1.3-2.4,1.4-2.7
		C317.8,67.7,317.6,66.8,317.6,66.5z M239.1,155.4l-0.4,1.2l0.4,0.2l0.4-1.4H239.1z M241.1,152.2l-0.4,1h0.4l0.4-0.8L241.1,152.2z
		 M243.4,148.5l-0.4-0.2l2.2-7.5h0.4L243.4,148.5z M244.2,163.2l-0.8,1.6l0.6,0.2l0.6-1.6L244.2,163.2z M244.6,57.1
		c1.5-1.2,2.7-1.8,3.7-1.8c1.2-0.1,1.9,0.7,2,2.4c0.1,2.4-0.5,3.7-2,3.9c0.5,0-0.7-0.7-3.7-2.2V57.1z M246,161.8l-1.4,3.3h0.8
		l1.2-3.3H246z M245.8,139.9v-0.8h0.6v0.8H245.8z M246.8,125.1h-0.6l0.4-2h0.6L246.8,125.1z M247.4,123H247l0.8-5.1h0.6L247.4,123z
		 M248.3,157.3l-0.8,0.8l0.4,0.4l0.8-0.8L248.3,157.3z M248.5,66.1h-0.6v1h0.6V66.1z M249.7,61.2c-0.5,0.5-1,1.4-1.4,2.4
		c0.3-1,0.7-1.6,1.4-1.8l0.8,0.4C250.1,61.7,249.8,61.3,249.7,61.2z M250.5,73.6l-0.8,1.2l0.6,0.4l0.6-1.4L250.5,73.6z M250.7,89.8
		h-0.6v1h0.6V89.8z M250.5,69v-1h0.6v1H250.5z M251.5,85.9h-0.6l0.2,1h0.6L251.5,85.9z M252.3,66.3l-0.4-0.2l0.4-0.8l0.4,0.2
		L252.3,66.3z M252.1,64.3c0.4-1.2,0.9-2,1.6-2.2l0.2,1.8C253.6,63.6,253,63.7,252.1,64.3z M252.6,68.3l-0.4-0.2l0.4-0.8h0.2
		L252.6,68.3z M253,117.7l-0.4-0.2l0.4-1l0.6,0.2L253,117.7z M256.6,127.7l-0.4-0.2l0.4-2h0.6L256.6,127.7z M259.1,61
		c-0.1-1.4,1-2.1,3.5-2.2c0.9,0,1.8,0.5,2.4,1.4L259.1,61z M259.7,138.3v-0.8l0.6-0.2v0.8L259.7,138.3z M260.7,136.9l-0.4-0.2l1-3.1
		h0.4L260.7,136.9z M262.3,130.8v-0.8h0.6v0.8H262.3z M262.8,129.7l-0.2-0.8h0.6l0.2,0.8H262.8z M263.2,128.1v-1.2l0.6-0.2v1.2
		L263.2,128.1z M263.8,126.3l-0.2-1.2h0.6l0.2,1.2H263.8z M264.2,53.9c0-0.4,0.4-0.9,1.3-1.4c0.9-0.5,1.5-0.8,1.9-0.8
		c0.3,0,0.5,0.1,0.7,0.3c0.2,0.2,0.4,0.3,0.5,0.3c0.5-1,1.6-1.4,3.1-1.4c3.3-0.1,5,1.1,5.1,3.7c0.1,0.5,0,1.9-0.4,4.1L264.2,53.9z
		 M264.8,90h-0.6l0.2-2.7h0.6L264.8,90z M264.4,124v-1h0.4v1H264.4z M265.4,90.2h-0.6l0.4-2.9h0.6L265.4,90.2z M269.1,110.2
		l-0.4-0.2l0.2-0.8l0.6,0.2L269.1,110.2z M269.5,108.7h-0.4l0.4-1.8h0.6L269.5,108.7z M270.1,105.1l-0.4-0.2l0.6-1.4h0.6
		L270.1,105.1z M271.1,103.2l-0.4,0.2v-1.8l0.6-0.2L271.1,103.2z M271.5,74.3l-0.6-0.2l0.4-1h0.6L271.5,74.3z M271.5,77.5v-1.2h0.6
		v1.2H271.5z M272.3,75.5h-0.4v-2.2h0.6L272.3,75.5z M274.6,97.3l-0.4,1.8l0.4,0.2l0.6-1.8L274.6,97.3z M277.6,70.2H277l0.2,0.8h0.6
		L277.6,70.2z M285,63l-0.4,1l0.4,0.2l0.4-1.2C285.4,63,285,63,285,63z M295.6,91l-1.2,1l0.4,0.4l1.2-1.2L295.6,91z M298.7,86.9
		l-0.4-0.2l0.4-0.8h0.4L298.7,86.9z M300.3,47.7c-0.4,0.5-0.9,0.8-1.4,0.8c1.8-0.1,2.7,0.3,2.7,1.4C301.5,48.8,301.1,48,300.3,47.7z
		 M311.3,80c0-0.4-0.1-0.7-0.4-0.8c0,1.1-0.1,1.7-0.4,1.8h0.6C311.2,80.6,311.3,80.2,311.3,80z M312.5,69.6l-0.4-2h0.6l0.4,1.8
		L312.5,69.6z M314.6,70.6c0.5,2,0.9,3.2,1,3.5c-1.2-2-1.9-3.2-2-3.5c0-0.3,0.1-0.6,0.2-1c0.1-0.4,0.2-0.7,0.2-0.8
		c0.5,0.4,1,0.6,1.2,0.6C315.2,69.5,315,69.9,314.6,70.6z M318,75.3h-0.4v1.2h0.4V75.3z"/>
	<path class="st1" d="M455.3,100.4c-2-0.3-3.8,0.2-5.3,1.4c-0.3,0.5-0.7,1.2-1.4,1.8c-1.2,1.1-2.5,2.1-3.9,3.1
		c-1.6,1.5-2.4,2.9-2.2,4.1c-1.8,1.8-5.7,5.2-11.8,10.2c-0.1,0.1-0.1,0.3,0.2,0.6c1.9-0.8,3.3-1.7,4.3-2.7l1.4,1.4
		c0,0.5-0.1,0.7-0.2,0.6l0.8,0.2c1.5,0,3.6-1.2,6.3-3.7l-3.7,3.1c0.1,0.1,0.6,0.3,1.4,0.4c1.2,0,3.5-0.9,6.7-2.7l-0.2,1.4
		c-0.7,1-1.7,2.1-3.1,3.5c-1.5,0.4-3.3,1.6-5.3,3.7c0.5,0.3,1.4,0.1,2.7-0.4c-0.4,0.4-1.1,0.9-1.9,1.5c-0.9,0.6-1.5,1.1-1.9,1.5
		l1,1.2c-1.9-0.3-2.9,0.2-2.9,1.4v1.4c-0.3,0-1.2,0.4-2.9,1.2c0,0.4,0.5,0.6,1.4,0.6c-3,1.9-6.2,3.9-9.6,5.9l-1.2,1.2
		c0,0.3,0.1,0.8,0.4,1.6c0.1,0.5,0.1,1.1-0.2,1.6l-5.7,4.1c-2.4,1.9-4.4,2.9-5.9,2.9c-3.4-0.1-5.1,0.5-5.1,2l-5.5-0.2
		c-0.4,0.1-0.7,0-0.8-0.3c-0.1-0.3-0.3-0.6-0.6-0.7c-0.5,0-3.1,0.7-7.8,2c-2.9,0.8-5.9,1.2-9.2,1c-7.9-0.4-15.4-2.9-22.4-7.3
		c-0.1-0.3-0.4-0.7-0.8-1.2c-2.6-1.4-3.7-2-3.3-2c-0.5,0-0.9,0.1-1,0.2l0.4-0.4v-0.2H356l-1-1c-0.7-0.8-1.4-1.2-2-1
		c0.3,0.5,0.8,1.4,1.6,2.7c-1.1-1.1-2.5-2.8-4.3-5.1c0-0.7-0.1-1.6-0.4-2.9c-1.1-2.3-2.5-6-4.3-11c-0.7,0.1-1,0.5-1,1
		c0,0.8,0.1,1.2,0.2,1c0-0.5-0.3-1.1-0.8-1.6l-0.6,0.6c-0.8,4.8-2.9,12.2-6.1,22.4c0.3,0.4-0.3,0.6-1.8,0.6c-0.3,0-0.7-0.3-1.4-0.8
		c-0.7-0.5-1.3-0.8-1.8-0.8c0-0.4,0.3-0.9,0.8-1.4c-0.1-0.3-0.9-0.7-2.2-1.4c-1.4,1.8-3.6,4.7-6.7,8.8l-1.4-1.6
		c0.9-1.2,1.4-2,1.4-2.2c0-0.5-0.5-1.4-1.4-2.7c-0.5,0.3-1.7,1.7-3.5,4.3c-0.8-1.2-1.8-2.7-2.9-4.5c-0.1,0.1-1.6,1.2-4.5,3.3
		c-1.2-2.4-1.8-4.1-1.8-5.1c0.1-0.9,0.6-1.8,1.4-2.4c-0.1-0.3-0.4-0.6-0.8-1h-1c-0.4,0-0.6,0.2-0.6,0.6v-1.4
		c0.8-0.5,1.6-1.5,2.4-2.9c1.2-3.5,2.2-9.2,3.1-17.1c0.3-0.4,0.5-1.2,0.8-2.4c0.1-0.3,0.2-1.6,0.2-3.9c0-2.2-0.1-3.7-0.4-4.7
		l1.8-1.4l5.3-46.7c2.3-20.3,4.6-35.7,6.9-46.3c0.5-2.2,2.2-7.1,4.9-14.7c0.3-3.1,0.3-0.9,0.2,6.7L333.5,22c0.5,0,1-0.3,1.4-1
		c0.8-5,2.7-12,5.5-21c0.9,0.4,2.1,1.4,3.5,2.9c0.5-0.4,1.6-0.5,3.3-0.4c0.1,0,0.4,0.1,0.8,0.2c0.4,0.1,0.7,0.2,1,0.2
		c0.4,0,0.6-0.1,0.6-0.4c0-0.3,0.2-0.3,0.6-0.2c0.3,0,0.5,0.1,0.8,0.4c0.3,0.3,0.6,0.4,1,0.4c1.4,0.1,2.2-0.6,2.4-2.2l2.2,4.9
		c-0.1,3.4-0.1,5.3,0.2,5.7c0.1,1.4,0,3.7-0.4,6.9c0.3,1,0.5,2.1,0.8,3.5l-8.2,64.7c-0.3,2.6,0.8,5.2,3.3,7.8
		c0.3,0.7,1.3,2.3,3.1,4.9c9.5-7.6,19.2-20.1,29-37.3c0.5,0.5,1.5,1.3,2.9,2.2c-0.5,2-1.2,3.7-1.8,4.9l-0.2,1.4
		c0.8,0.1,1.6-0.3,2.4-1.4l1.6-2.7c0.3,0.3,0.5,0.4,0.8,0.4c-0.1,2.2-0.3,3.5-0.4,3.9c1.1-0.8,1.9-1.8,2.4-2.9l-7.5,15.1
		c-2.6,5.3-5.6,9.9-9.2,13.9c-0.4,0.4-1.7,1.8-4,4.2c-2.2,2.4-3.4,3.7-3.4,4c0-0.4,0.6,0.7,1.8,3.3c-0.5-0.5-1.3-1.4-2.2-2.4
		c-0.7,0.3-1.4,1.2-2.2,2.9l0.8,0.4c0.4,0.1-0.3,0.2-2,0.2c-0.7,0.3-0.9,0.5-0.6,0.8c-0.8,0.3-1.9,1.3-3.3,3.1
		c1.8,1.9,4.5,3.3,8.2,4.3c8.2,2.2,12,3.3,11.4,3.3c0.7,0,2.7,0,6.1,0l5.9-0.2l0.6,0.8c4.5,0.3,14.9-4.8,31.2-15.1
		c-2.2,1.6-6.5,4.5-12.9,8.6c0,1,0.5,1.4,1.4,1.4l14.5-8c9.4-5.3,15-7.9,16.9-7.8c0.3,0,0.4,0.1,0.4,0.2c0,0.1,0.2,0.2,0.6,0.2
		c0.5,0.1,1.7-0.1,3.4-0.7c1.7-0.6,2.9-0.9,3.6-0.9C452.1,99.3,453.3,99.7,455.3,100.4z M333.9,10.6h-0.8l-1,5.7h0.6L333.9,10.6z
		 M345.6,131h-0.8v-1h0.8V131z M347.6,131.2l-0.4-2l-0.8-0.2l0.4,2L347.6,131.2z M352.7,87.9l-2,1.6l-0.4-0.4l2-1.6L352.7,87.9z
		 M361.3,108.5l-0.4-0.4l-2.9,2.4l0.4,0.6L361.3,108.5z M359,11h-0.8v-1h0.8V11z M359.6,91.8l-0.6-0.2l-0.4-1.4l0.6-0.2L359.6,91.8z
		 M366.2,103.2l-0.4-0.2l-4.1,4.1l0.4,0.4L366.2,103.2z M363.9,145.9l-2-1l-0.2,0.6l2,1L363.9,145.9z M368.2,109.8H367v-0.8h1.2
		V109.8z M372.1,63.2l-3.3,4.7l-0.6-0.4l3.3-4.9L372.1,63.2z M370.5,110l-0.2,0.6l-1.4-0.6v-0.6L370.5,110z M387.4,153.4
		c-4.9-0.7-8-1.2-9.4-1.4c-3.5-0.8-6.3-2-8.4-3.5h1.4c1.8,0.1,4.3,0.8,7.5,2c3.3,1.2,5.8,1.9,7.5,2
		C387,152.6,387.4,152.9,387.4,153.4z M372.5,111l-0.2,0.6l-1.4-0.6v-0.6L372.5,111z M377.2,64.7l-1.2,1.6l-0.4-0.6l1-1.4
		L377.2,64.7z M378.2,61.2l-0.8,1.6l-0.6-0.2l0.8-1.4H378.2z M378.2,89.6l-0.4-0.4l-1,1.4l0.4,0.4L378.2,89.6z M395.8,68.7
		c-1.6,3.1-4.2,7.8-7.8,13.9c-2.3,2.9-5.6,7.1-10,12.9L395.8,68.7z M386.2,77.9h-0.6l-1.8,3.9l0.4,0.4L386.2,77.9z M439.2,108.9
		l-0.2-0.6l-2.7,1.2v0.6L439.2,108.9z M457,100.4l-1.2-0.2v-0.6l1.2,0.2V100.4z"/>
	<path class="st1" d="M472.7,49c-1.5,0.7-3.1,1.8-4.7,3.3c-0.1-0.3-0.4-0.4-0.8-0.4c-1.6,0-2.8,1.6-3.5,4.7c2.9-1.5,4.8-2.9,5.9-4.1
		c-0.7,0.5-1,1.1-1,1.6c0,0.4,0.3,0.8,0.8,1.2c-0.4,0.1-2.8,1.3-7.1,3.5l0.2,0.4l-1-0.2l-0.6,0.6c1.5,0.4,2.7,0.6,3.7,0.6
		c-0.3,0.1-0.9,0.6-1.8,1.4c-0.7-0.3-1.7,0-3.1,0.9c-1.4,0.9-2,1.7-1.8,2.3c-0.1,0.1-1.2,1-3.1,2.4c-0.1,0.3-0.1,0.4,0.2,0.4
		c-0.1,0-0.4,0.1-0.8,0.2c-0.4,0.1-0.7,0.2-0.8,0.2c0.1,0,0.4-0.1,0.8-0.4c-1.4-0.3-2.7,0-3.9,0.8l-1.8,1.2h-1.2
		c-0.1,0.1-0.2,0.3-0.2,0.4c0,0.3,0.1,0.5,0.4,0.8c-0.1-0.1-0.3-0.1-0.6,0.2c-0.3,0.3-0.5,0.4-0.8,0.4c-0.3,0-0.3-0.1,0-0.4
		c0.1-0.3,0-0.4-0.4-0.4c-0.8,0-2.9,0.8-6.1,2.4l-4.9,2.4l-3.3,1c-1.4,0.7-2.2,1-2.4,1l-0.8,0.6c-2.3,0.5-3.5,1.4-3.5,2.4
		c0,1.1,0.8,2.4,2.4,4.1c0.1,1,0.5,2.4,1.2,4.3c2.2,0.3,3.4,0.4,3.7,0.4c0.3,0,0.4-0.1,0.4-0.2c0-0.1,0.1-0.2,0.4-0.2
		c0.3,0,0.6,0.2,0.9,0.5c0.3,0.3,0.6,0.5,0.9,0.5c1.1,0,2.6,0.2,4.6,0.6c2,0.4,3.4,0.6,4.4,0.6c1.9,0.1,3.5,0.5,4.9,1l0.8-0.8
		c2.2,0.5,5.6,2.2,10.2,5.1l-0.4,0.2c0.3,0.8,1,1.9,2.2,3.3h1c0.4,0,0.5-0.1,0.4-0.2l2.4,2.7c-0.1,0.1-0.2,0.4-0.3,0.7
		c-0.1,0.3-0.2,0.6-0.3,0.7c4.5,3,6.7,4.8,6.7,5.5c0,0.5-0.1,1.4-0.3,2.6c-0.2,1.2-0.3,2-0.3,2.6c0,0.8,0.1,1.8,0.2,2.9
		c-0.4-0.3-0.8-0.4-1-0.4c0.3-0.7,0.4-1.4,0.4-2.2s-0.1-1.8-0.4-2.9c-1,5.6-1.8,9.7-2.4,12.2c-1.4,4.9-3.3,9-5.9,12.2
		c-0.1,0.3-0.5,0.8-1,1.6l0.4-0.6l-0.6-0.6c-0.4,0.5-1,1.2-1.8,2c0.1,0.1,0.3,0.3,0.6,0.4l1-0.6c-0.1,0.7-0.5,1.5-1.2,2.4
		c-1.1,0.5-2.7,1.5-4.7,2.9c-0.5-1.2-1.2-1.8-1.8-1.8c-0.1,0.1-1.2,0.5-3.1,1c-0.3,0.4-0.1,0.6,0.4,0.6c-0.7,1.4-1.6,2-2.7,2
		c-0.3,0-0.4-0.1-0.4-0.2c0-0.1-0.1-0.2-0.4-0.2c-0.3,0-0.6,0.2-1.1,0.5c-0.5,0.3-0.9,0.5-1.1,0.5c-0.1-0.3-0.4-0.6-0.8-1
		c-0.1,0.1-0.3,0.3-0.6,0.5c-0.3,0.2-0.5,0.4-0.6,0.5c0.7,0,1.2,0.1,1.4,0.4c-0.4,0-1.1-0.1-1.9-0.2c-0.9-0.1-1.5-0.2-1.9-0.2
		c0.4,0,0.7-0.1,1-0.4c-0.4-0.4-0.7-0.6-0.8-0.6c-0.5,0-1,0.2-1.4,0.6l1,1.2c-0.3-0.3-0.5-0.4-0.8-0.4l-0.4,0.6
		c0.4,0.4,0.7,0.6,1,0.6c-4.1,1.4-5.6,2-4.7,2l-1.2-0.4c-0.3,0-0.9,0.4-1.9,1.1c-1,0.7-1.7,1.1-1.9,1.1c-0.7,0-1.7,0.1-3.1,0.2
		c-1.4,0.1-2.4,0.2-3.1,0.2c-0.3,0-0.8-0.4-1.6-1.2c-0.1,0.3-0.1,0.6,0.2,1c-1.2,0.4-2.9,0.9-5.1,1.4c-9.8,1.2-16.7,1.8-20.8,1.8h-2
		c-0.8,0-2.4-0.5-4.9-1.4c-0.1,0-0.3-0.1-0.6-0.2h-1c-0.4,0-0.5,0.1-0.4,0.3c0.1,0.2,0.1,0.3-0.2,0.3c-0.3,0-0.6-0.1-1-0.4
		c-0.4-0.1-0.9-0.1-1.4,0c0.7,0.7,1.3,1,1.8,1h-0.8c-0.7,0.1-1.2,0.2-1.4,0.2c-0.3,0-0.6-0.2-1.1-0.7c-0.5-0.5-0.9-0.7-1.3-0.7
		c-0.7,0-1,0.3-1,1l-1.4-0.6c-1-0.4-1.4-0.7-1.4-1c0-0.1,0.1-0.3,0.2-0.4c-0.1-0.3-0.5-0.4-1.2-0.4h-0.8c-0.1,0.1-0.3,0.2-0.6,0.2
		c0.4,0-2-0.7-7.3-2.2c-1.6-0.5-8.6-1.8-20.8-3.7c0.4,0,0.6-0.3,0.6-0.8c3.8,1.4,6.7,2,8.6,2c0.7,0,1.2-0.1,1.4-0.4
		c-2.6-1.1-4.4-1.6-5.3-1.6c-0.3,0-0.4,0.1-0.5,0.2c-0.1,0.1-0.2,0.2-0.5,0.2c-0.1-0.3-0.6-0.6-1.4-1c-2-1.1-3.9-1.6-5.7-1.6
		c0-0.3,0.1-0.5,0.2-0.8c-1.4-1.1-3.2-2.7-5.5-4.9c-0.1-0.4,0-1.4,0.4-3.1c-0.3-0.1-0.6-0.6-1-1.4h1.2c-0.1,0,0,0.2,0.4,0.6l0.6-0.6
		c-0.4-0.1-1.6-0.8-3.5-2c-0.1-0.4-0.5-1-1.2-1.8c0.4-0.9,1.2-1.7,2.2-2.2c0-0.4-0.5-0.6-1.4-0.6c0.4-0.8,1.4-1.4,2.9-1.6
		c-0.1-1.4,0-2.2,0.4-2.4c1.6,0.4,4.2,0.9,7.8,1.4l0.6,0.6c0.4,0,1.1,0.3,2,0.8c0.3-0.3,0.4-0.7,0.4-1.2c2.3,1.2,4,1.8,5.1,1.8
		c0.7,0,1-0.5,1-1.4c0.1,0.3,0.4,0.4,0.8,0.4c0.5,0,0.8-0.3,0.8-0.8c0.7,0.4,1.6,0.9,2.7,1.4c4.1,0.8,7,1.2,8.8,1.2
		c0.3,0,0.5-0.1,0.6-0.4c0.1-0.3,0.3-0.4,0.6-0.4c0.3,0,0.5,0.2,0.7,0.7c0.2,0.5,0.4,0.7,0.7,0.7c0.8,0,2,0.2,3.6,0.5
		c1.6,0.3,2.8,0.5,3.6,0.5c5.4,0,11.1-0.2,17.1-0.6c-0.1-0.1-0.5-0.2-1-0.2c2.6-0.3,6.1-0.7,10.4-1.4c9-0.3,18.9-1.8,29.8-4.5
		c0.5-0.4,0.8-0.7,0.8-0.8c1.4-0.1,2.8-0.7,4.3-1.8c0-0.8-0.3-1.2-0.8-1.2h-0.8l1.2-0.6c-0.3-0.3-0.8-0.4-1.4-0.4
		c0.8-0.1,2.9-1.2,6.1-3.1l-8-1.8c1.6,0.5,2.9,0.8,3.9,0.8h5.1v-1.4c-4.5-0.5-9.6-1.5-15.3-2.9l-1.2,0.2c0.7,0.7,1,1.1,1,1.2
		c-1.4-0.5-2.5-0.8-3.5-0.8c0.1,0,0.3-0.1,0.6-0.4c-0.3-0.4-0.8-0.6-1.6-0.6c-0.7,0-1.2,0.1-1.6,0.4c-0.3,0.1-0.1,0.7,0.4,1.6
		c-0.7-0.1-2.8-1.4-6.3-3.9c-0.4,0.4-0.5,0.7-0.2,1c-0.7-0.4-1.4-0.6-2-0.6c-1.4,0-2.2,1.3-2.7,3.9c-0.8-0.4-1.6-0.6-2.4-0.6
		c-0.3,0-0.7,0.1-1.3,0.2c-0.6,0.1-1.1,0.2-1.3,0.2c-0.3,0.3-0.2,0.8,0.2,1.6c-1.6-0.1-2.9,0.1-3.9,0.8c0.3-0.8,0.1-1.8-0.6-2.9
		c-0.8,0.1-1.7,1.4-2.7,3.9c0.1-0.9,0.1-1.6-0.2-2h-1c-0.1,0.4-0.2,0.8-0.2,1.2s0.1,0.8,0.2,1.2c-0.5-0.1-1.2,0-1.8,0.4
		c-0.1-0.7-0.4-1.6-0.8-2.7c-0.5,0.7-1.4,1.3-2.7,1.8c0.3-0.5,0.8-1.1,1.6-1.6c0.1-1.1,0.4-2.2,0.8-3.5l-0.2-1.6
		c-0.3,0.3-0.4,0.5-0.4,0.8c0,0.1,0.1,0.3,0.2,0.4c-0.3,0.1-0.6,0.4-1,0.8c-0.7-0.5-1-1.2-0.8-2c0.1-1.1,0.1-2,0-2.7
		c-1.9,0.8-2.7,2.7-2.4,5.5c0-0.1-0.1-0.3-0.3-0.4c-0.2-0.1-0.3-0.3-0.3-0.6c0-0.8,0.9-2.9,2.9-6.1l-0.2-1.6c-0.4,0-0.8,0.5-1.2,1.6
		c-0.1-0.3-0.5-0.7-1.2-1.4c-1,0.4-1.4,1.1-1.4,2c-0.4-0.4-0.7-0.6-1-0.6h-0.6c-0.1,0.1-0.3,0.2-0.4,0.2c1.8-2.2,2.7-3.7,2.7-4.5
		c0-0.4-0.1-0.7-0.3-0.8c-0.2-0.1-0.3-0.3-0.3-0.6h-0.8c-1.1,0-2,0.7-2.7,2c-0.1,0-0.4-0.1-0.9-0.4c-0.5-0.3-0.9-0.4-1.1-0.4
		c0.4-3.8,4.2-12.4,11.4-25.9c2.7-2.9,5.9-7,9.6-12.4v1.4c1.5-1.5,3.7-3.5,6.5-5.9c2.2-1.4,3.6-2.3,4.3-2.9c1.9-1.5,2.9-2.7,3.1-3.7
		c2,0,5.8-1.6,11.4-4.7l8-4.5c3.9-1.4,6.2-2.7,6.7-4.1c0.1,0.1,0.4,0.2,0.8,0.2c0.7,0,2.2-0.7,4.5-2.2c-0.4-0.4-0.8-0.6-1-0.6l0.8-1
		c0.1,0,0.2,0.2,0.3,0.7c0.1,0.5,0.3,0.7,0.7,0.7s0.8-0.2,1.2-0.6c-0.3,0,0.1,0.5,1,1.4c0.7-0.3,1.7-0.7,3.1-1.4v2.4
		c-0.5-0.1-1-0.1-1.2,0v0.6l-0.6-0.2c-0.4-0.1-0.7-0.2-0.8-0.2l-0.2,2c2,0,3.3-0.8,3.7-2.4c3.4-1.6,5.5-2.2,6.3-1.8
		c0,0.3-0.2,0.7-0.6,1.2c0.1,0.1,0.4,0.2,0.8,0.2c0.3-0.7,0.4-1.6,0.4-2.7l1.8,1.2c0.3,1.4,0.4,2.2,0.4,2.7c0,0.1-0.2,0.5-0.7,1.1
		c-0.5,0.6-0.7,1.1-0.7,1.5c0,0.3,0.2,0.9,0.6,1.8c0.1-0.3,0.2-0.7,0.2-1.4c0.1,0,0.3-0.1,0.6-0.4c0.3-0.3,0.6-0.4,1-0.4
		c0.3,0,0.3,0.1,0.2,0.4c-0.1,0.3-0.1,0.4,0.2,0.4c0.4,0,0.8-0.1,1.1-0.4c0.3-0.3,0.6-0.4,0.7-0.4c0,0.3-0.1,0.7-0.2,1.4v1.2
		c0.8,1,1.2,1.8,1.2,2.4c-0.1,0.4-0.7,2.4-1.6,6.1c0-0.8,0.1-1.3,0.4-1.4v-1.2c-0.1-0.3-0.3-0.4-0.6-0.4l-1,3.1
		c0.1,0.1,0.5,0.2,1,0.2c0.5,0,1-0.3,1.4-1C472.3,48.8,472.5,49,472.7,49z M338,134.8h-1v-0.6h1V134.8z M344.6,145.7l-1.8-0.4v-0.6
		l1.8,0.4V145.7z M358.4,146.7v-0.6h-1.2v0.6H358.4z M358.8,143.4v-0.6h-1v0.6H358.8z M359.9,144.8v-0.6H359v0.6H359.9z
		 M361.3,145.2v-0.6h-1.2v0.6H361.3z M361.1,147.5v-0.6h-1v0.6H361.1z M361.3,144.2v-0.6h-0.8v0.6H361.3z M363.1,144.6V144h-1.2v0.6
		H363.1z M365,146.1v-0.6l-2.4-0.4v0.6L365,146.1z M364.5,138.7v-0.6h-0.8v0.6H364.5z M365.4,144.8v-0.6h-1.6v0.6H365.4z
		 M365.6,148.5v-0.6l-1.8-0.4v0.6L365.6,148.5z M367.4,146.7v-0.6l-2.2-0.4v0.6L367.4,146.7z M368.6,139.5v-0.6h-1v0.6H368.6z
		 M369.6,146.7v-0.6h-1.4v0.6H369.6z M371.1,139.9v-0.6h-2v0.6H371.1z M371.5,147.1v-0.6h-1v0.6H371.5z M371.5,149.1v-0.6h-1v0.6
		H371.5z M372.9,149.1v-0.6h-1v0.6H372.9z M378.6,146.7v-0.6l-5.9-0.4v0.6L378.6,146.7z M378.2,147.7v-0.6l-5.5-0.2v0.6L378.2,147.7
		z M374.9,149.5v-0.6h-2v0.6H374.9z M379.6,150.3v-0.6l-3.9-0.8v0.6L379.6,150.3z M380.7,149.9v-0.6h-0.8v0.6H380.7z M381.9,153
		l-1.6-0.8l-0.2,0.6l1.6,0.8L381.9,153z M383.7,147.1v-0.6h-1.8v0.6H383.7z M386.2,143v-0.6h-3.1v0.6H386.2z M386.2,150.3v-0.6h-2.4
		v0.6H386.2z M425.1,151c-0.5,0-1.4-0.1-2.5-0.2c-1.2-0.1-2-0.2-2.6-0.2c-0.3,0-0.5,0.2-0.8,0.5c-0.3,0.3-0.5,0.5-0.8,0.5
		c-0.3,0-0.5-0.1-0.8-0.3c-0.3-0.2-0.5-0.3-0.6-0.3c-1.6,0-3.2,0.3-4.7,1l-0.8-0.8c-1.1,0.1-2.7,0.5-4.9,1.2
		c0.3-0.3,0.4-0.5,0.4-0.8h-2.4c0,0.3-0.1,0.5-0.2,0.8c-0.4-0.4-0.8-0.6-1.2-0.6c0.4,0.4,0.5,0.7,0.4,0.8c-1.1-0.3-2-0.4-2.9-0.4
		c0.7,0,0.8,0.1,0.4,0.4h-1c-0.4-0.4-1.2-0.6-2.4-0.6h-5.1c-0.4,0.1-1.8,0.2-4.3,0.2h-2.9c0.5,0,1.4,0.3,2.6,0.9
		c1.2,0.6,1.9,0.9,2.1,0.9c0.3,0,0.7-0.1,1.2-0.3c0.5-0.2,0.9-0.3,1.2-0.3c0.3,0,0.3,0.1,0,0.4c-0.1,0.1-0.1,0.2,0.2,0.2
		c0.5,0,1.3-0.1,2.2-0.3c0.9-0.2,1.6-0.3,2-0.3c0.5,0.4,0.9,0.6,1,0.6c3.4,0,5.8-0.1,7.1-0.4c0-0.7,0.1-1.1,0.2-1.2
		c0.1,0,0.2,0.2,0.2,0.5c0,0.3,0.2,0.5,0.6,0.5c0.5,0,0.7-0.1,0.6-0.4l0.6,0.8c2.9,0,5.6-0.4,8.2-1.2c-0.3,0.3-0.1,0.4,0.6,0.4
		c1.2,0,2.6-0.4,4.1-1.2c0,0.3,0.5-0.1,1.4-1l0.2,0.6c0.1,0.4,0.4,0.6,0.8,0.6c0.3,0,0.7-0.2,1.3-0.5C424.6,151.1,425,151,425.1,151
		z M387.6,147.1v-0.6h-2v0.6H387.6z M388.4,150.1l-1.4-0.4v0.4l1.2,0.4L388.4,150.1z M390.9,126.9h-1v-0.6h1V126.9z M391.1,80.2
		l-0.6,1.4l-0.4-0.2l0.4-1.2H391.1z M392.1,77.3l-0.8,2.4l-0.6-0.2l0.8-2.2C391.5,77.3,392.1,77.3,392.1,77.3z M392.1,98.1v-1h-0.6
		v1H392.1z M394.1,150.3v-0.6h-2v0.6H394.1z M394.1,100l-0.2-0.6l-0.8,0.4v0.6L394.1,100z M400,147.5v-0.6h-5.1v0.6H400z
		 M396.2,150.3v-0.6h-1v0.6H396.2z M397.6,150.3v-0.6h-1v0.6H397.6z M399.4,128.3v-0.6H397v0.6H399.4z M399.4,150.3v-0.6h-1v0.6
		H399.4z M403.3,128.3v-0.6l-3.5-0.2v0.6L403.3,128.3z M401.9,150.3v-0.6h-2v0.6H401.9z M400.9,151.4v-0.6h-1v0.6H400.9z
		 M401.7,157.3l-0.2,0.6l-1-0.6l0.2-0.4L401.7,157.3z M404.1,156.5h-2v-0.8h2V156.5z M403.3,150.3v-0.6h-0.8v0.6H403.3z M404.9,59.6
		l-1.2,1.2l-0.4-0.4l1.2-1.2L404.9,59.6z M406,151.4v-0.6h-2.4v0.6H406z M405.5,150.3v-0.6h-1.6v0.6H405.5z M409,147.1v-0.6h-1.2
		v0.6H409z M410.2,156.5c-0.8,0-1.4,0.1-1.6,0.4l0.8-1C409.6,156,409.8,156.2,410.2,156.5z M409.6,145.9l-0.6-0.4l-0.2,0.4l0.4,0.4
		L409.6,145.9z M418.4,155c-1.9,0.4-3.7,0.6-5.3,0.6c2.6-0.8,3.7-1.2,3.3-1.2C417,154.4,417.7,154.6,418.4,155z M416,150.6v-0.6
		h-1.4v0.6H416z M416.4,149.5v-0.6h-1.4v0.6H416.4z M417.4,145.7V145H416v0.6H417.4z M422.5,154.2h-1.8v-0.6h1.8V154.2z
		 M423.9,153.6h-1.4V153h1.4V153.6z M426.8,150.3h-2.7c0.9,0,1.7,0.3,2.2,0.8C426.4,151,426.5,150.8,426.8,150.3z M430.2,151.4v-0.6
		h-0.8v0.6H430.2z M432.5,148.9v-0.6h-1v0.6H432.5z M433.1,147.7v-0.6h-1.2v0.6H433.1z M433.3,149.5l-0.2-0.6l-1.2,0.4v0.6
		L433.3,149.5z M434.5,147.5v-0.6h-1.2v0.6H434.5z M435.3,111.6h-1V111h1V111.6z M438.6,117.1l-1,0.4v-0.4l0.8-0.4L438.6,117.1z
		 M440,149.7l-1.2,0.8l-0.2-0.4l1.2-0.8L440,149.7z M442.1,146.1v-0.6h-1.2v0.6H442.1z M444.9,147.5h-0.8v-0.6h0.8V147.5z
		 M448.6,138.1v-0.6h-1v0.6H448.6z M448.6,144l-0.2-0.4l-0.8,0.4v0.4L448.6,144z M451.2,136.9l-0.2-0.4l-2.2,0.6v0.6L451.2,136.9z
		 M450.2,150.1l-1.2,0.4v-0.4l1-0.4L450.2,150.1z M457.6,96.7c-0.5-1.1-3.2-2.3-8-3.7c-0.1,0.1-0.2,0.7-0.2,1.8
		C452.4,95.1,455.1,95.7,457.6,96.7z M450.4,139.1v-0.6h-1v0.6H450.4z M458.4,139.5c-1.6,0.1-2.9,1.2-3.9,3.1
		c-0.1-0.3-0.4-0.4-0.8-0.4c0,0.3,0.1,0.7,0.4,1.2C456.1,142.5,457.6,141.2,458.4,139.5z M460.2,65.5l-4.3,1.8v-0.4l4.1-2
		L460.2,65.5z M458.4,97.7l-2-0.8v0.6l1.8,0.6L458.4,97.7z M459.2,100.6l-1.2-1.8l-0.4,0.4l1.2,1.6L459.2,100.6z M458.6,147.1h-0.8
		v-0.6h0.8V147.1z M461.9,100.6c-1.2,0.7-1.8,1.2-1.6,1.6c0.5,0.5,1,0.8,1.2,0.8c0-0.3,0.1-0.7,0.2-1.2
		C461.8,101.3,461.9,100.8,461.9,100.6z M461.2,65.3h-1v-0.6h1V65.3z M462.7,137.5l-1.6,1.6l-0.2-0.4l1.6-1.6L462.7,137.5z
		 M462.7,42.4l-0.2-0.4l-1.2,0.8l0.2,0.4L462.7,42.4z M462.7,62.6l-1,0.8l-0.4-0.6l1.2-0.8L462.7,62.6z M464.1,56.9h-1.4l-0.6,0.8
		C462.9,57.7,463.6,57.5,464.1,56.9z M464.5,103c-0.5-0.4-1.2-1.1-2-2c0.1,0.3,0.2,0.5,0.2,0.8c0,0.4-0.1,0.7-0.4,1
		c1.1,1.1,1.6,1.6,1.6,1.4C463.9,103.7,464.1,103.3,464.5,103z M466.5,39.4c-0.7-0.1-1.4-0.5-2.2-1.2c-0.3-0.3-0.5-0.4-0.6-0.4V39
		c-0.1,0.5-0.2,0.9-0.2,1c0.1-0.1,0.3-0.3,0.4-0.6c0.1-0.3,0.3-0.5,0.4-0.6c0.3,0.8,0.1,1.6-0.4,2.2l-0.8,1
		C465,41.8,466.1,40.9,466.5,39.4z M464.7,59.4h-1.2v-0.6h1.2V59.4z M466.3,58.5l-1,0.6v-0.6l0.8-0.4L466.3,58.5z M466.8,134.6h-0.6
		l-0.4-0.8l0.6-0.2L466.8,134.6z M467.8,42.4l-0.4-0.4l-0.8,0.8l0.4,0.4L467.8,42.4z M468.2,49.6v-1.2h-0.6v1.2H468.2z M470.2,44.1
		V40c-0.3-0.3-0.7-0.4-1.4-0.4c0,0.3-0.1,0.6-0.4,1c-0.3,0.4-0.4,0.8-0.4,1.2l0.6,0.6v2.9C469,45,469.5,44.6,470.2,44.1z
		 M469.6,46.1l-0.2-0.6l-1.2,0.4v0.6L469.6,46.1z M470,118.5h-0.6v-1h0.6V118.5z M472.3,22.2l-0.8,0.8h-1.8v-2.4l1.4-1.4
		C471.3,19.3,471.7,20.3,472.3,22.2z M471,119.5h-0.6l-0.4-0.8l0.6-0.2L471,119.5z M487.8,33.5c0,1-0.7,2.2-2,3.7l-2.4,2
		c-0.3-0.3-0.9-1.1-1.8-2.4c-0.4,0.3-1.4,0.1-3.1-0.6c0.8-0.5,1.3-1.1,1.4-1.6c-2.4-0.7-4.1-2.8-5.1-6.3l-1.4,1.4l-2.4-2.4
		c1.1-1.8,1.9-2.7,2.4-2.7l0.6,0.8c0.1-0.8,0.5-1.9,1-3.3c1.6-2.4,3.7-3.7,6.1-3.7c0.3,0,0.9,0.2,2,0.6c1.1,0.4,1.9,0.6,2.4,0.6
		c0.1,0.5,0.1,1.2-0.2,1.8c1.6,1.6,2.4,2.9,2.4,3.9c0,0.5-0.8,2.2-2.4,5.1C486.9,31.3,487.8,32.4,487.8,33.5z M473.5,124.4l-0.4,1.4
		l-0.4-0.2l0.4-1.2H473.5z M503.7,43.2c-1.9,1.4-4.8,3.3-8.8,5.7c-1.1,1-2.6,2.2-4.5,3.9c-0.1,0-0.4-0.1-0.8-0.4
		C491.6,49.3,496.3,46.2,503.7,43.2z M505.1,37.9c0,0.3-0.1,0.6-0.2,1c-0.1,0.4-0.2,0.7-0.2,1c-0.7-0.1-1.4,0-2,0.4
		c-0.5-0.7-0.8-1.1-0.8-1.2c0-0.3,0.1-0.8,0.4-1.5c0.3-0.7,0.4-1.3,0.4-1.5c0.5-0.1,1.4-0.1,2.4,0L505.1,37.9L505.1,37.9z"/>
</g>
</svg>
