<?xml version="1.0" encoding="utf-8"?>
<!-- Generator: Adobe Illustrator 23.1.0, SVG Export Plug-In . SVG Version: 6.00 Build 0)  -->
<svg version="1.1" id="Layer_1" xmlns="http://www.w3.org/2000/svg" xmlns:xlink="http://www.w3.org/1999/xlink" x="0px" y="0px"
	 viewBox="0 0 498.16 175.44" style="enable-background:new 0 0 498.16 175.44;" xml:space="preserve">
<style type="text/css">
	.st0{opacity:0.07;}
	.st1{fill:#6E7171;}
</style>
<g class="st0">
	<path class="st1" d="M154.84,122.6c-4.35,2.86-10.95,7.28-19.79,13.26c0.41,0.41,0.82,0.61,1.22,0.61c0.82,0,2.31-0.68,4.49-2.04
		c-0.41,0.54-0.48,0.95-0.2,1.22c0.68-0.27,1.63-0.68,2.86-1.22c-1.36,1.09-2.86,2.04-4.49,2.86l-1.43,1.63
		c-2.18,0.95-5.37,2.65-9.59,5.1c-0.27,0.14-0.27,0.34,0,0.61c7.48-3.54,13.6-6.87,18.36-10c-1.09,1.22-2.72,2.86-4.9,4.9
		c-1.36,0.68-3.54,1.84-6.53,3.47c-2.18,1.91-5.37,4.49-9.59,7.75c-1.09,0.68-3.61,1.7-7.55,3.06c-0.54,0.82-3.54,2.45-8.98,4.9
		c-3.26,1.63-5.1,2.38-5.51,2.24c-0.27,0-0.71-0.14-1.33-0.41c-0.61-0.27-1.05-0.41-1.33-0.41c-1.91,0-4.76,0.37-8.57,1.12
		c-3.81,0.75-6.67,1.05-8.57,0.92c1.09,0,0.03-0.14-3.16-0.41c-3.2-0.27-5-0.41-5.41-0.41c0.27,0.27,1.29,0.88,3.06,1.84
		c-3.4-0.14-5.37-0.34-5.92-0.61c-2.31-1.09-6.26-3.88-11.83-8.36c-1.63-1.63-2.52-2.58-2.65-2.86l-4.28,0.41
		c-0.41,0.27-0.82,0.61-1.22,1.02L51,151.98c-0.14,0.14-0.2,0.38-0.2,0.71c0,0.34-0.2,0.44-0.61,0.31h-1.43
		c-0.41-0.13-0.75-0.2-1.02-0.2c0.82,0,2.17-0.37,4.08-1.12c1.9-0.75,3.4-1.12,4.49-1.12c0.41,0.14,0.61,0,0.61-0.41
		c0-0.68-0.85-1.87-2.55-3.57c-1.7-1.7-2.89-2.62-3.57-2.75c-0.41,0-1.09,0.27-2.04,0.82c-0.95,0.54-1.63,0.82-2.04,0.82
		c-3.4-0.13-8.3,0.14-14.69,0.82c0,0.14,0.13,0.38,0.41,0.71c0.27,0.34,0.41,0.71,0.41,1.12c-1.22-1.5-2.45-2.24-3.67-2.24
		c-0.41,0-0.61,0.07-0.61,0.2c0,0.14,0.13,0.34,0.41,0.61c-0.68-0.41-2.31-1.02-4.9-1.84c-0.14,0.14-0.34,0.24-0.61,0.31
		c-0.27,0.07-0.48,0.17-0.61,0.31c2.58,2.18,4.69,3.33,6.32,3.47l4.69,0.2c0.13-0.13,0.2-0.27,0.2-0.41c0-0.13-0.2-0.2-0.61-0.2
		c0.95,0,2.04,0.34,3.26,1.02c-0.82,0-2.01,0.14-3.57,0.41c-1.56,0.28-2.75,0.41-3.57,0.41c-0.41,0-1.36-0.47-2.86-1.43
		c-1.5-0.95-2.38-1.43-2.65-1.43c-0.41,0-0.58,0.07-0.51,0.2c0.07,0.14-0.1,0.2-0.51,0.2c-2.31-0.13-6.46-2.65-12.44-7.55
		c-0.68-1.09-1.91-3.06-3.67-5.92c-3.54-5.58-5.65-11.83-6.32-18.77C0.2,111.72,0,108.87,0,107.1c0-0.13,0.17-0.47,0.51-1.02
		c0.34-0.54,0.44-0.95,0.31-1.22c-0.14-5.3,1.73-11.8,5.61-19.48c3.88-7.68,8.13-12.55,12.75-14.59c0.82-0.13,1.77-0.41,2.86-0.82
		c3.4-2.31,5.3-3.33,5.71-3.06c-1.22,0.41-2.52,1.29-3.88,2.65c1.09,0.82,2.24,1.22,3.47,1.22c0.82,0,1.66-0.58,2.55-1.73
		c0.88-1.15,1.26-2.14,1.12-2.96c0.54,0,0.88,0.14,1.02,0.41c0.41,0,0.68-0.41,0.82-1.22c0,0.27,0.34,0.41,1.02,0.41
		c0.13,0,1.63-0.78,4.49-2.35c2.86-1.56,4.62-2.48,5.3-2.75c1.63-0.68,5.58-1.43,11.83-2.24c3.94-0.54,5.71-0.82,5.3-0.82
		c0.41,0,1.02,0.27,1.84,0.82c0.82,0.54,1.36,0.89,1.63,1.02c0.41,0,1.02-0.13,1.84-0.41c0.82-0.27,1.36-0.41,1.63-0.41
		c0.27,0,0.71,0.1,1.33,0.31c0.61,0.2,1.05,0.31,1.33,0.31c0.41,0,0.85-0.13,1.33-0.41c0.47-0.27,0.85-0.41,1.12-0.41
		c0.27,0,0.75,0.27,1.43,0.82c0.68,0.55,1.15,0.82,1.43,0.82c2.17,0.54,3.74,0.82,4.69,0.82c0.27,0,0.58-0.13,0.92-0.41
		c0.34-0.27,0.64-0.41,0.92-0.41c0.41,0,0.82,0.07,1.22,0.2l0.61,0.41c-0.68,0-1.16,0.2-1.43,0.61l-0.2,0.41
		c1.5,0.14,3.94,0.61,7.34,1.43l-0.2,4.49l-0.82,0.82c-0.41,0.41-0.61,0.82-0.61,1.22c0.13,0,0.41,0.2,0.82,0.61
		c-0.41-0.13-0.89-0.41-1.43-0.82c-0.68,0.68-1.77,1.77-3.26,3.26l0.2,1.43c0.41-0.13,1.02-0.54,1.84-1.22
		c-0.14,1.09,0.07,1.63,0.61,1.63c0.41,0.14,0.75,0.14,1.02,0h0.61c-0.27,0.41-0.89,1.97-1.84,4.69c0,0.41-1.09,2.04-3.26,4.9v1.84
		c1.22-2.04,3.4-4.9,6.53-8.57c-2.31,5.71-4.28,10.13-5.92,13.26c-0.14,0.14-0.07,0.34,0.2,0.61c0.27-0.13,0.61-0.41,1.02-0.82
		c1.9-4.49,5.37-11.02,10.4-19.58h0.82c-0.14,0.41-0.41,1.09-0.82,2.04l0.41,0.82l1.43-1.22c-0.82,1.36-1.84,3.4-3.06,6.12
		c0.13,0.27,0.34,0.41,0.61,0.41c0-0.82-0.14-1.22-0.41-1.22c-0.41,0-1.36,1.16-2.86,3.47l-6.32,11.63c0.13,0.27,0.13,0.68,0,1.22
		c-0.14,0.27-0.27,0.75-0.41,1.43l-0.82-0.82c-2.58,2.99-4.15,7.34-4.69,13.06l-1.22,12.04c-0.27,0.82-0.41,1.5-0.41,2.04
		c0,0.82,0.13,1.5,0.41,2.04c0.54-0.41,0.82-1.09,0.82-2.04c0.54-1.77,1.15-4.28,1.84-7.55c0.27-1.9,0.68-4.83,1.22-8.77
		c0.13-0.41,1.15-2.38,3.06-5.92c0.41-0.82,1.29-2.92,2.65-6.32c0.95-2.31,2.24-4.21,3.88-5.71l0.61,1.84
		c-2.31,3.54-4.9,11.49-7.75,23.87l0.82,0.82c1.09-6.39,3.54-11.97,7.34-16.73c-1.09,1.91-2.38,4.83-3.88,8.77
		c-1.5,5.58-2.24,10.07-2.24,13.46c-0.14,0.54,0.07,0.82,0.61,0.82c-0.68,0,1.84-1.09,7.55-3.26v1.84c0.27,0.14,0.61,0.2,1.02,0.2
		c1.36,0,5.17-1.7,11.42-5.1l-9.59,6.32c0.41,0.27,0.75,0.41,1.02,0.41c0.54,0,1.09-0.13,1.63-0.41c-0.27,0.27-0.75,0.82-1.43,1.63
		l-1.43-1.43l-6.94,5.3c0.54,0.14,1.43,0.48,2.65,1.02c-0.54,0-2.58,0.68-6.12,2.04c0,0.82-0.17,1.91-0.51,3.26
		c-0.34,1.36-0.51,2.45-0.51,3.26c-0.14,1.36,0.61,2.62,2.24,3.77c1.63,1.16,3.19,1.8,4.69,1.94c0.41,0,0.99-0.07,1.73-0.2
		c0.75-0.13,1.33-0.2,1.73-0.2l16.32-6.73c-0.27,0.27-1.7,0.95-4.28,2.04c-1.77,0.82-2.93,1.91-3.47,3.26c0.13,0,0.31,0.07,0.51,0.2
		c0.2,0.14,0.37,0.2,0.51,0.2l17.14-8.98c0.95,0.27,2.45,0.48,4.49,0.61c-0.68-0.13,0.61-0.68,3.88-1.63l0.61-0.2
		c1.36-0.27,3.6-1.02,6.73-2.24c6.25-3.94,9.66-6.05,10.2-6.32c0.41,0,0.58,0.07,0.51,0.2c-0.07,0.14,0.03,0.2,0.31,0.2
		c0.68,0.14,1.36-0.07,2.04-0.61c-0.95,0.82-1.63,1.84-2.04,3.06c-1.91,0.41-4.15,1.56-6.73,3.47c-0.14,0.14-0.07,0.34,0.2,0.61
		C144.64,127.37,148.44,125.6,154.84,122.6z M4.9,125.26c-0.95-2.99-1.43-4.62-1.43-4.9c0-1.22,0.54-1.77,1.63-1.63L4.9,125.26z
		 M4.28,118.12H3.67v-3.06h0.61V118.12z M21.62,146.06c-1.5-0.68-3.81-2.24-6.94-4.69l0.2-0.61l-0.82,0.61l-2.86-3.06
		C13.8,139.81,17.27,142.39,21.62,146.06z M34.48,153.61c-0.54,1.77-1.77,2.58-3.67,2.45c-1.5,0-4.01-1.22-7.55-3.67
		c-2.59-1.77-4.49-3.13-5.71-4.08c2.86,1.63,7.21,3.88,13.06,6.73c0.13-0.13,0.31-0.24,0.51-0.31c0.2-0.07,0.37-0.17,0.51-0.31
		c-0.68-0.95-1.91-2.04-3.67-3.26c3.4,1.77,5.23,2.72,5.51,2.85C33.86,154.02,34.2,153.89,34.48,153.61z M74.26,69.36h-3.47
		l0.82,1.02c-0.14,0.14-0.48,0.2-1.02,0.2c-0.54-0.54-0.95-0.88-1.22-1.02c0.27,0.41,0.41,0.75,0.41,1.02c0,0.27-0.2,0.48-0.61,0.61
		c-2.45-0.54-3.47-0.82-3.06-0.82c-1.36,0-2.99,0.61-4.9,1.84c-6.53,4.22-10.68,7.75-12.44,10.61c0.41,0,0.95,0.34,1.63,1.02
		c1.09-1.77,3.26-3.54,6.53-5.3c3.26-1.77,5.98-2.58,8.16-2.45c0.54,0,0.88,0.07,1.02,0.2c-4.76,1.22-9.59,3.67-14.48,7.34
		c-0.68,0.27-1.5,0.54-2.45,0.82c-1.77,2.58-4.28,6.12-7.55,10.61c-0.14-0.95,1.02-3.47,3.47-7.55c-3.54,5.17-5.92,8.71-7.14,10.61
		c-2.31,3.81-3.47,6.8-3.47,8.98c-2.04,5.3-3.13,9.38-3.26,12.24c0,1.63,0.47,3.74,1.43,6.32c1.36,3.67,3.19,5.51,5.51,5.51
		c1.09,0.14,3.13-0.41,6.12-1.63c2.99-1.22,5.03-1.84,6.12-1.84c0.41,0,0.58,0.07,0.51,0.2c-0.07,0.14,0.1,0.27,0.51,0.41
		c0.41,0,0.95-0.24,1.63-0.71c0.68-0.47,1.15-0.71,1.43-0.71c0.54-1.09,0.88-3.19,1.02-6.32c1.09-16.86,4.69-30.33,10.81-40.39
		c-0.82,0-1.43,0.27-1.84,0.82v-1.63c0,0.27-0.27,0.68-0.82,1.22l0.2-2.86c1.22,0,2.04-0.13,2.45-0.41
		c0.41-0.82,0.88-1.97,1.43-3.47h1.63c0.13,0.27,0.2,0.61,0.2,1.02l-0.41,0.82L74.26,69.36z M40.6,152.18
		c-0.41,0.41-0.61,0.75-0.61,1.02c0,0.14,0.07,0.27,0.2,0.41c-2.58-0.13-4.63-0.41-6.12-0.82c0.13,0,0.31-0.17,0.51-0.51
		c0.2-0.34,0.37-0.51,0.51-0.51h1.84C37.33,151.91,38.56,152.05,40.6,152.18z M37.33,109.55l-0.41-0.41l-1.22,1.63l0.61,0.41
		L37.33,109.55z M44.47,151.78c-0.41,0-1.84-0.41-4.28-1.22c0.95,0.14,2.17,0.41,3.67,0.82C44.13,151.64,44.34,151.78,44.47,151.78z
		 M49.57,147.9h-4.28v-0.61h4.28V147.9z M54.47,155.65c-0.82,0.27-1.91,0.68-3.26,1.22c-0.27-0.14-0.75-0.54-1.43-1.22
		c0.13-1.63,1.7-2.38,4.69-2.24c-0.41,0-1.22,0.34-2.45,1.02l0.82,1.02C53.79,155.45,54.33,155.51,54.47,155.65z M51.82,147.9
		l-0.2,0.61l-1.43-0.61v-0.61L51.82,147.9z M55.9,108.53L55.49,112h-0.82l0.41-3.47H55.9z M72.22,67.12l-0.2-0.61l-1.02,0.61
		l-0.2,0.61L72.22,67.12z M80.17,64.87c-1.5-0.41-2.79-0.61-3.88-0.61c-1.36-0.13-3.13,0.2-5.3,1.02c1.09,0.82,1.63,1.5,1.63,2.04
		c0.68,0,1.36,0.14,2.04,0.41c1.22,0.82,1.9,1.22,2.04,1.22c0.41-0.82,0.92-1.7,1.53-2.65C78.85,65.35,79.49,64.87,80.17,64.87z
		 M77.52,71.2c0.27,0,0.41,0.07,0.41,0.2c-0.14,0.27-0.41,0.68-0.82,1.22l-1.63-1.02c0.13,0.14,0.48,0.1,1.02-0.1
		C77.04,71.3,77.38,71.2,77.52,71.2z M76.7,139.13v-1.63h-0.82v1.63H76.7z M76.91,136.48v-1.63h-0.82v1.63H76.91z M86.29,65.89
		c1.09,0.14,0.41,0.04-2.04-0.31c-2.45-0.34-3.81-0.51-4.08-0.51c-0.41,1.36-1.22,2.79-2.45,4.28c0.68,0,1.09,0.14,1.22,0.41
		c-0.54,0.54-0.82,0.89-0.82,1.02c0.13,0,0.34-0.07,0.61-0.2c0.27-0.13,0.54-0.2,0.82-0.2c0.41,0,0.61,0.17,0.61,0.51
		c0,0.34,0.07,0.51,0.2,0.51c-0.27,0.27-0.41,0.82-0.41,1.63c0.54-0.27,2.11-0.75,4.69-1.43c-0.27,0-0.48-0.13-0.61-0.41
		C84.73,70.11,85.48,68.34,86.29,65.89z M79.15,133.82l-0.61-1.22l-0.61,0.2l0.61,1.02H79.15z M84.25,46.51l-0.2,5.51
		c0,2.31-1.02,3.74-3.06,4.28c-1.22-1.36-1.84-3.54-1.84-6.53c0.13-2.99,1.15-4.42,3.06-4.28C82.75,45.49,83.44,45.83,84.25,46.51z
		 M82.21,67.73l-1.02,1.02l-0.41-0.61l1.22-0.82L82.21,67.73z M85.48,115.26h-0.82l-1.02,6.12h0.61L85.48,115.26z M89.56,73.24
		c-0.68,0-1.43-0.34-2.24-1.02c0.13,0,0.41-0.1,0.82-0.31c0.41-0.2,0.75-0.31,1.02-0.31c0,0.41,0.07,0.75,0.2,1.02L89.56,73.24z
		 M92.41,93.84l-3.47,5.1l-0.61-0.41l3.47-5.1L92.41,93.84z M90.37,108.53l-1.22,4.28l-0.82-0.2l1.43-4.08H90.37z M109.34,58.34
		c0,0.95-1.91,3.2-5.71,6.73c-1.77-0.54-4.15-1.56-7.14-3.06c-0.27-0.54-0.75-1.43-1.43-2.65c0.27-0.41,0.48-1.22,0.61-2.45
		c0.13-1.5-0.14-2.24-0.82-2.24c-0.27,0-0.58,0.07-0.92,0.2c-0.34,0.14-0.65,0.14-0.92,0c-1.36,0-2.72-1.36-4.08-4.08
		c1.9-2.17,3.88-3.19,5.92-3.06c0.27,0,0.95,0.38,2.04,1.12c1.09,0.75,1.84,1.12,2.24,1.12c0.54,0.14,1.29,0.14,2.24,0
		c0.95-0.13,1.7-0.2,2.24-0.2c1.09,0.14,2.31,1.29,3.67,3.47C108.66,55.42,109.34,57.12,109.34,58.34z M91.19,72.62h-1.02v-0.61
		h1.02V72.62z M97.31,81.4l-2.45,3.26l-0.61-0.41l2.45-3.26L97.31,81.4z M96.9,78.54l-1.22,2.04l-0.61-0.2l1.22-2.04L96.9,78.54z
		 M99.14,78.13l-1.22,0.82l-0.41-0.41l1.22-1.02L99.14,78.13z M102.61,122.6c-0.27-0.27-0.48-0.61-0.61-1.02
		c-0.27,0.14-0.95,0.82-2.04,2.04c0.27,0.27,0.68,0.75,1.22,1.43C101.18,124.51,101.66,123.69,102.61,122.6z M105.47,123.42
		l-1.84,1.63l1.63,0.2C105.26,124.17,105.33,123.56,105.47,123.42z M148.31,94.86c0,0.27-0.07,0.65-0.2,1.12
		c-0.14,0.48-0.2,0.78-0.2,0.92h-2.04c-0.27-0.41-0.82-1.22-1.63-2.45c0,0.27-0.27,0.61-0.82,1.02c0.68-0.27,1.02-0.88,1.02-1.84
		c0-0.54-0.07-1.39-0.2-2.55c-0.14-1.15-0.2-2-0.2-2.55c0-0.68,0.07-1.29,0.2-1.84l2.04,0.2c0.27,0.95,0.54,2.86,0.82,5.71
		C147.9,93.43,148.31,94.18,148.31,94.86z"/>
	<path class="st1" d="M196.04,114.85c0,5.03-1.16,9.18-3.47,12.44c-0.82,1.22-1.91,3.13-3.26,5.71c-0.82,1.09-4.15,4.01-10,8.77
		c0.13-0.41,0.48-1.02,1.02-1.84c0-0.13,0.07-0.2,0.2-0.2h-1.02c1.09,0-0.34,0.61-4.28,1.84c0.95-0.54,2.31-1.5,4.08-2.86
		c0.13-0.27,0.07-0.54-0.2-0.82L153,151.37c-0.14-0.54-0.41-0.82-0.82-0.82c-1.91,0-7.34,1.97-16.32,5.92
		c-0.41,0.13-1.22,0.82-2.45,2.04c0-0.95,0.13-1.43,0.41-1.43c-0.82,0.82-1.36,1.97-1.63,3.47c-0.27-0.14-0.82-0.54-1.63-1.22
		c-4.49,1.77-6.6,4.96-6.32,9.59c-0.27,0-0.65-0.17-1.12-0.51c-0.48-0.34-0.85-0.51-1.12-0.51c-0.27,0.41-1.09,2.24-2.45,5.51h-1.02
		c-0.14-1.36-0.14-2.99,0-4.9c-0.27-0.54-0.61-0.95-1.02-1.22c-0.27,0.27-0.41,0.75-0.41,1.43c0-0.68-0.2-1.16-0.61-1.43
		c-0.27,0.27-1.02,1.29-2.24,3.06c0.13-2.31,0.13-3.81,0-4.49c-0.41,0-0.68,0.2-0.82,0.61c-0.27,1.22-0.95,2.99-2.04,5.3
		c-0.14-0.14-0.34-1.22-0.61-3.26c-0.41-1.5-0.2-2.79,0.61-3.88c-0.95-1.09-1.9-1.63-2.86-1.63c-0.54,0-1.15,0.07-1.84,0.2
		c-0.68,0.13-1.22,0.2-1.63,0.2v-3.06c1.5-0.27,3.47-0.82,5.92-1.63c0.68-1.91,2.31-6.25,4.9-13.06c1.49-3.94,3.26-8.98,5.3-15.1
		v-0.61c-0.55,0.41-1.02,1.09-1.43,2.04c5.85-19.18,11.22-40.53,16.12-64.06c3.13-15.78,4.9-27.74,5.3-35.9c0-1.09,0-2.58,0-4.49
		c0-1.9-0.07-3.33-0.2-4.28c0-0.95,0-1.09,0-0.41v-3.26c0.27,0.95,0.82,2.24,1.63,3.88c0.82-1.36,1.22-2.86,1.22-4.49
		c0-1.22-0.2-2.45-0.61-3.67c0.13-0.68,0.82-2.17,2.04-4.49c-0.41,4.22-0.61,7.14-0.61,8.77c0.41-0.82,1.22-2.31,2.45-4.49
		c0.68-0.82,1.77-1.9,3.26-3.26c0.27,0.27,0.75,1.09,1.43,2.45c0.27-0.13,0.48-0.61,0.61-1.43v1.43c1.22,0,2.11,0.14,2.65,0.41
		c0.27-0.27,0.51-0.71,0.71-1.33c0.2-0.61,0.37-0.98,0.51-1.12c-0.14,0.68-0.14,2.04,0,4.08c0.95-0.41,1.7-1.15,2.24-2.24
		l-1.22-1.43c0.82,0.54,2.04,1.36,3.67,2.45c0.68-1.36,1.02-2.79,1.02-4.28c0.13,0.82,0.41,1.97,0.82,3.47
		c0.13-0.82,0.47-1.63,1.02-2.45c0.27,1.5,0.88,3.74,1.84,6.73h0.2c0.13-2.04,0.61-4.62,1.43-7.75c0.68-1.36,1.7-2.04,3.06-2.04
		c0.82,0,1.7,1.22,2.65,3.67c-1.77,0-2.86,0.82-3.26,2.45c-0.41,1.22-0.41,2.72,0,4.49c0.68,4.35,1.02,8.64,1.02,12.85
		c0,6.94-1.02,13.53-3.06,19.79c0-0.54-0.27-1.15-0.82-1.84c-0.41,2.04-1.16,5.1-2.24,9.18c-0.27-0.27-0.54-0.41-0.82-0.41
		c-0.54,1.09-1.16,2.72-1.84,4.9c0.13,0.68,0.2,1.77,0.2,3.26c-0.54,0.68-1.29,1.84-2.24,3.47v-2.04c-0.14-0.13-0.27,0-0.41,0.41
		c-0.68,2.45-2.11,7.21-4.28,14.28c1.36-0.13,4.21-0.13,8.57,0c4.9,0.27,8.77,0.89,11.63,1.84c5.85,2.18,10.74,6.12,14.69,11.83
		C194.07,102.61,196.04,108.6,196.04,114.85z M138.51,16.12c-0.27,0.41-0.54,1.56-0.82,3.47c-0.41-0.82-0.95-2.17-1.63-4.08
		c0.54,0.54,0.88,0.82,1.02,0.82h1.02C138.24,16.19,138.38,16.12,138.51,16.12z M137.7,136.27h-0.61l-1.02,2.45l0.61,0.2
		L137.7,136.27z M139.54,130.56c-0.82,0.68-1.43,2.18-1.84,4.49c-0.27,0-0.48,0.07-0.61,0.2c0.13,0.27,0.34,0.61,0.61,1.02
		C138.92,133.42,139.54,131.51,139.54,130.56z M169.93,120.16c0-1.09-0.41-2.65-1.22-4.69l-1.02,3.26c0-1.77-0.61-4.08-1.84-6.94
		c0,1.36-0.14,2.24-0.41,2.65c0-0.68-0.82-1.77-2.45-3.26h1.63c-0.68-2.17-4.35-3.26-11.02-3.26c-2.58,0-4.15,0.54-4.69,1.63
		c0.95,0,2.38,0.34,4.28,1.02l-4.49,1.02c-1.36,4.22-3.4,10.2-6.12,17.95c0-0.27,0.07-0.41,0.2-0.41c0.13,0.27,0.2,0.68,0.2,1.22
		c0,0.68-0.31,1.77-0.92,3.26c-0.61,1.5-0.92,2.38-0.92,2.65c0.68-0.82,1.36-1.9,2.04-3.26c0.27,0.27,0.34,0.48,0.2,0.61
		c0-0.41-0.27-0.13-0.82,0.82c-0.68,1.22-1.29,2.04-1.84,2.45l-0.41,0.41c-0.14,1.5-0.41,2.72-0.82,3.67c0-0.68,0.41-1.02,1.22-1.02
		c0.27,1.09-0.34,2.59-1.84,4.49h1.63c-0.68,0.95-1.5,2.24-2.45,3.88c2.04-0.68,4.21-2.04,6.53-4.08c-1.5,1.09-2.58,1.5-3.26,1.22
		c0.82-0.68,1.63-1.29,2.45-1.84c-1.5,0.54-2.45,0.68-2.86,0.41c4.35-2.58,10.67-6.19,18.97-10.81l-4.28,1.22
		c2.58-1.9,5.17-3.74,7.75-5.51c3.13-2.31,4.9-4.62,5.3-6.94C169.52,120.09,169.93,119.48,169.93,120.16z M145.86,112.2
		c-0.41,0.14-0.89,0.41-1.43,0.82c-1.22,3.67-2.86,9.11-4.9,16.32l1.02,0.61L145.86,112.2z M140.96,143l-0.82,1.02l-0.61-0.41
		l1.22-1.22L140.96,143z M143.21,13.26h-0.61v-2.04h0.61V13.26z M146.06,126.89l-1.22,2.24l-0.82-0.2l1.43-2.24L146.06,126.89z
		 M147.29,108.73c-1.36,0.68-2.04,1.22-2.04,1.63h1.63C146.88,109.68,147.01,109.14,147.29,108.73z M146.47,111.38v-0.82h-1.22v0.82
		H146.47z M148.71,12.85h-0.82l-0.41-1.84h0.61L148.71,12.85z M150.96,113.63c-0.82,0-1.43,0.48-1.84,1.43
		c0.27-1.36,0.68-2.38,1.22-3.06C150.35,112.68,150.55,113.22,150.96,113.63z M153.2,0.82l-0.41,0.61l-1.02-1.02L152.18,0
		L153.2,0.82z M152.79,84.05v-1.22h-0.82v1.22H152.79z M153.2,82.62v-1.43h-0.82v1.43H153.2z M153.61,80.99v-2.04H153v2.04H153.61z
		 M154.43,82.62l-0.61-0.2l-0.61,1.43l0.61,0.2L154.43,82.62z M159.12,75.48l-0.61,2.24h-0.61l0.41-2.24H159.12z M159.53,74.66
		h-0.82v-1.43h0.82V74.66z M164.42,63.85h-0.61v-1.63h0.61V63.85z M172.58,35.5h-1.02v-2.86h1.02V35.5z M172.79,20.6h-0.61v-1.22
		h0.61V20.6z M172.79,31.42h-0.61v-10.4h0.61V31.42z M177.68,142.6l-2.04,1.02V143l1.84-1.02L177.68,142.6z M189.11,113.42
		c0-2.45-1.09-5.44-3.26-8.98c0,0.68-0.14,1.16-0.41,1.43c-0.14-1.22-1.16-2.75-3.06-4.59c-1.91-1.84-3.47-2.96-4.69-3.37
		c7.62,6.12,11.15,12.92,10.61,20.4C188.83,116.55,189.11,114.92,189.11,113.42z M182.58,80.17l0.61,0.61h1.43
		c-0.55,0-0.34-0.27,0.61-0.82c1.22,0.41,1.5,1.16,0.82,2.24c-0.68,1.5-0.75,2.72-0.2,3.67c0.68,0.41,1.5,1.16,2.45,2.24l3.06,0.61
		c1.36,0,1.77-0.68,1.22-2.04c0.41-0.27,1.02-1.7,1.84-4.28c0.54,0.54,0.88,0.82,1.02,0.82c1.77,0,2.65-0.88,2.65-2.65
		c0-2.45-1.16-3.67-3.47-3.67c-0.14,0-0.31,0.1-0.51,0.31c-0.2,0.2-0.38,0.31-0.51,0.31c-0.14,0-0.54-0.24-1.22-0.71
		c-0.68-0.47-1.09-0.71-1.22-0.71c-0.68,0-1.84,0.48-3.47,1.43c-0.27,0.27-0.89,0.75-1.84,1.43c-0.14,0-0.2-0.07-0.2-0.2
		c0-1.36-0.54-2.04-1.63-2.04c-0.41,0-0.89,0.41-1.43,1.22V80.17z M187.47,131.17l-0.41-0.41l-3.88,4.08l0.2,0.41L187.47,131.17z
		 M186.05,83.03l0.61-0.2v0.2l-0.41,0.2L186.05,83.03z"/>
	<path class="st1" d="M292.53,93.02c0,2.45-1.02,6.05-3.06,10.81c-0.82,2.31-1.97,5.99-3.47,11.02c-1.63,1.77-3.95,4.76-6.94,8.98
		l1.02-2.04c0.82-1.5,1.09-2.38,0.82-2.65c-1.09,1.5-2.58,3.95-4.49,7.34c-0.82,0.68-2.04,1.97-3.67,3.88
		c-0.82,1.5-1.97,3.67-3.47,6.53c-3.54,5.03-7.48,9.11-11.83,12.24c-7.48,5.58-12.44,8.36-14.89,8.36c-0.41,0-1.02-0.14-1.84-0.41
		c-0.82-0.27-1.36-0.41-1.63-0.41c-1.09,0-2.62,0.24-4.59,0.71c-1.97,0.48-3.5,0.71-4.59,0.71c-4.08,0-8.43-2.18-13.06-6.53
		l-4.08-0.82c-0.14,0.41-0.2,0.95-0.2,1.63c0,0.68,0.07,1.5,0.2,2.45c-1.36-1.77-3.2-4.08-5.51-6.94c-0.14-0.68-0.48-1.9-1.02-3.67
		c-0.41-0.27-0.82-0.54-1.22-0.82c-0.27-1.77-0.68-4.49-1.22-8.16c0.68-0.82,1.02-1.43,1.02-1.84c-1.36-3.13-2.24-5.78-2.65-7.96
		c0.41-0.41,0.41-4.08,0-11.02c1.22-9.93,3.74-19.72,7.55-29.38c1.5-4.21,4.42-8.63,8.77-13.26c4.62-5.44,8.77-8.57,12.44-9.38
		c0.54,0,3.13-1.09,7.75-3.26c-9.38,3.81-16.87,9.72-22.44,17.75c-0.14,0.14,0,0.41,0.41,0.82l1.02-0.82
		c-1.77,1.91-3.2,4.22-4.28,6.94l0.82,0.41c4.21-5.85,11.08-12.04,20.6-18.56c-0.41,0-1.56,0.34-3.47,1.02
		c8.7-5.17,15.43-7.68,20.2-7.55c-0.14,0-0.41,0.2-0.82,0.61c0.41,0.27,0.88,0.41,1.43,0.41c0.68,0,1.7-0.13,3.06-0.41
		c1.36-0.27,2.38-0.41,3.06-0.41c0.41,0,1.33,0.48,2.75,1.43c1.43,0.95,2.28,1.43,2.55,1.43c0.54,0,0.78-0.1,0.71-0.31
		c-0.07-0.2,0.03-0.31,0.31-0.31c0.41,0.14,0.98,0.58,1.73,1.33c0.75,0.75,2.75,2.96,6.02,6.63c0.54,1.22,1.9,2.86,4.08,4.9
		l0.82-0.82c-0.95-0.41-1.33-0.95-1.12-1.63c0.2-0.68,0.03-1.22-0.51-1.63c2.17,0,3.81,0.48,4.9,1.43c0.82-0.95,1.22-1.56,1.22-1.84
		c0.54,1.5,1.63,3.06,3.26,4.69c0.95,1.09,2.38,4.56,4.28,10.4c0,0.55,0.07,1.43,0.2,2.65c0.27,0.54,0.88,1.09,1.84,1.63
		C292.13,90.58,292.53,91.8,292.53,93.02z M223.17,71.4l-2.65,2.86l-0.2-0.61l2.45-2.45L223.17,71.4z M226.44,69.36l-2.65,2.04
		l-0.2-0.82l2.45-1.84L226.44,69.36z M258.87,88.94c-1.36-2.04-2.18-3.6-2.45-4.69c-1.77,1.22-4.63,3.54-8.57,6.94
		c0.13-0.82,0.68-1.84,1.63-3.06c-6.26,7.75-10.81,16.39-13.67,25.91c-0.54-0.82-0.89-1.22-1.02-1.22c-0.95,0-1.87,1.63-2.75,4.9
		c-0.89,3.26-1.33,5.58-1.33,6.94c0,2.72,0.61,6.26,1.84,10.61c5.44-1.5,10.68-5.51,15.71-12.04c5.03-6.53,7.48-12.44,7.34-17.75
		c0.54,0.27,0.95-0.13,1.22-1.22l0.61-1.43c-1.09-0.41-2.24-0.88-3.47-1.43c0.13-0.68,0.2-1.22,0.2-1.63c0-1.36-2.18-2.58-6.53-3.67
		l5.1-0.2c0.68,0.27,1.63,0.89,2.86,1.84c0.13-0.41,0.34-0.88,0.61-1.43c-0.82,0-1.29-0.07-1.43-0.2c0.68-0.68,0.95-1.22,0.82-1.63
		c-0.54-0.41-1.29-0.95-2.24-1.63c2.04-0.68,3.4-1.56,4.08-2.65c-0.41-0.54-0.95-1.15-1.63-1.84c0.41,0,0.95,0.1,1.63,0.31
		C258.12,88.84,258.6,88.94,258.87,88.94z M240.72,59.16h-1.22v-0.82h1.22V59.16z M249.49,59.36c-1.5,0.41-4.56,1.43-9.18,3.06h1.84
		C242.96,62.56,245.41,61.54,249.49,59.36z M243.37,58.14h-1.22v-0.82h1.22V58.14z M252.34,102h-1.02v-0.82h1.02V102z M288.66,68.54
		h-0.82v-1.84h0.82V68.54z"/>
	<path class="st1" d="M376.58,165.44c-0.41-0.14-1.16-0.17-2.24-0.1c-1.09,0.07-1.84,0.1-2.24,0.1c-0.27,0-1.06-1.09-2.35-3.26
		c-1.29-2.18-2.01-3.33-2.14-3.47c-0.95,0.54-1.5,1.09-1.63,1.63c-0.14,0.68,0.41,1.84,1.63,3.47c-0.27,0.95-0.27,1.9,0,2.86
		c-0.27,1.5-1.09,2.24-2.45,2.24c-0.41,0-0.71-0.07-0.92-0.2c-0.2-0.14-0.38-0.2-0.51-0.2c-0.27,0.27-0.48,0.61-0.61,1.02
		c0,0.27,0.07,0.48,0.2,0.61l-1.02-1.02c-0.95,0-1.5,0.41-1.63,1.22l-0.2,1.84c-0.41,0-0.95-0.14-1.63-0.41
		c-0.68-0.27-1.29-0.41-1.84-0.41c0.41,0.54,0.88,1.36,1.43,2.45l-0.2,1.63h-1.63c-0.68-1.77-1.77-4.42-3.27-7.96
		c-2.31,0.68-3.81,1.09-4.49,1.22c-1.91,0-2.79-3.47-2.65-10.4c0-0.95,0.07-4.49,0.2-10.61c-0.14,0.27-0.41,0.68-0.82,1.22
		c-1.36,0.54-3.13,1.36-5.3,2.45c-5.71,2.04-9.93,3.13-12.65,3.26l-5.3,0.2c-1.22,0-3.26-0.68-6.12-2.04
		c-0.55-0.27-1.22-0.68-2.04-1.22c-6.67-2.86-11.22-8.77-13.67-17.75c-1.91-7.48-2.18-15.64-0.81-24.48
		c0.13-0.82,0.31-2.11,0.51-3.88c0.2-1.77,0.37-3.19,0.51-4.28c0.27-1.63,2.92-9.31,7.96-23.05c1.9-5.03,4.01-8.43,6.32-10.2
		c0.13,1.09,0.41,2.52,0.81,4.28c0.13-0.13,1.23-1.5,3.27-4.08c1.63-2.31,2.92-3.47,3.88-3.47c0.54,0,1.15,0.14,1.84,0.41
		c0.13,0.27,0.27,0.61,0.41,1.02l-0.2,1.43c0.13,0.54,0.41,1.43,0.81,2.65c0.82,2.04,2.11,2.99,3.88,2.86
		c-1.09,0.14,0.34-0.48,4.28-1.84c0.13,0.54,0.13,1.5,0,2.86c-0.27,1.5-0.75,3.26-1.43,5.3c-0.14,0.41-0.14,0.89,0,1.43
		c-0.68,3.26-1.77,7.68-3.26,13.26c-0.41,1.36-0.55,2.58-0.41,3.67l0.2,0.61c-1.36,7.75-1.91,13.6-1.63,17.54
		c0.41,6.26,2.52,12.31,6.32,18.16l-0.2,0.41c0.82,0.14,1.77,0.54,2.86,1.22c0.13,0.27,0.34,0.41,0.61,0.41
		c0.54,0,3.4-1.56,8.57-4.69c0.41,0,0.75,0.2,1.02,0.61c-0.68,1.09-1.3,1.77-1.84,2.04c0.13,0.14,0.41,0.27,0.81,0.41
		c0,0.82,0.75,1.63,2.24,2.45c0.54-1.77,1.09-4.42,1.63-7.96c-0.27-0.68-0.41-1.09-0.41-1.22l0.82-1.02
		c0.95-9.25,4.35-22.1,10.2-38.56c1.77-4.9,4.55-11.76,8.36-20.6l1.02,1.02c-0.68,1.63-1.43,3.6-2.24,5.92l-0.61,3.06
		c-0.14,0.27,0.07,0.41,0.61,0.41c1.09,0,2.28-1.22,3.57-3.67c1.29-2.45,2-3.67,2.14-3.67c0.54,0,0.95,0.07,1.23,0.2l0.2,0.2
		l1.43-3.67c-0.14,0.95-0.14,2.04,0,3.26c0.81-0.41,1.63-1.77,2.45-4.08l2.04-0.82c1.36,1.36,1.97,2.11,1.84,2.24
		c0.54,0,0.78-0.07,0.71-0.2c-0.07-0.13,0.03-0.2,0.31-0.2c0.41,0,0.82,0.48,1.22,1.43c0.41,0.95,0.75,1.5,1.02,1.63
		c-0.14,0.41-0.68,1.29-1.63,2.65c-0.41,0.82-0.41,1.7,0,2.65c-0.14,0.14-0.07,0.34,0.2,0.61c0.81-0.27,1.97-1.09,3.47-2.45
		l-0.2,0.61c0.13,0.14,0.34,0.48,0.61,1.02c-0.41,1.09-0.75,2.31-1.02,3.67c-0.27,1.91-0.48,4.08-0.61,6.53l0.41,0.2
		c0.13-0.54,0.48-1.02,1.02-1.43c-0.27,0.95-2.52,9.66-6.73,26.11c-1.91,7.75-3.06,14.62-3.47,20.6c-0.14,1.5-0.68,4.63-1.63,9.38
		c-0.14,0.41,0,0.89,0.41,1.43l-0.2,1.43c-0.27,0.14-0.61,0.2-1.02,0.2c-0.41,0-0.75-0.13-1.02-0.41l-1.43,0.2
		C370.18,156.13,371.55,163.4,376.58,165.44z M337.61,81.6l-2.04,5.71c-1.5,4.76-2.38,7.69-2.65,8.77
		c-0.14,0.95-0.27,2.38-0.41,4.28c-0.54,2.18-1.36,3.74-2.45,4.69c-0.68-4.08-0.81-7.41-0.41-10c0.27-1.22,0.82-3.13,1.63-5.71
		c0.82-2.58,1.29-4.35,1.43-5.3c0.54-1.63,1.5-3.88,2.85-6.73c0.13,0.27,0.41,0.61,0.82,1.02c0.54-0.54,1.15-0.82,1.84-0.82
		L337.61,81.6z"/>
	<path class="st1" d="M396.77,131.99c-0.27,1.5-0.89,2.18-1.84,2.04c-0.27,0-1.29-0.95-3.06-2.86c0.13-0.82-0.41-1.77-1.63-2.86
		c-0.14-0.82-0.2-1.29-0.2-1.43c0.41,0,0.82,0.27,1.22,0.82l1.63-1.22c0.68-0.54,1.15-0.82,1.43-0.82
		C395.82,125.94,396.64,128.05,396.77,131.99z M394.12,30.4c0,0.27-0.1,0.61-0.31,1.02c-0.2,0.41-0.31,0.68-0.31,0.82
		c-0.68-0.13-1.36-0.13-2.04,0c-0.54-0.54-0.75-0.88-0.61-1.02c0-0.27,0.2-0.78,0.61-1.53c0.41-0.75,0.61-1.26,0.61-1.53
		c0.54,0,1.36,0.14,2.45,0.41L394.12,30.4z M497.96,64.87l-3.88,1.84c-0.14,0.54,0.34,1.16,1.43,1.84c0,0.27-0.27,0.68-0.82,1.22
		c-2.45,0.27-5.99,0.48-10.61,0.61c-0.82,0-1.57,0.27-2.24,0.82c1.09,0.27,2.24,0.55,3.47,0.82c1.22,0.14,2.45,0.2,3.67,0.2
		c-1.5,0.27-3.74,0.61-6.73,1.02c-1.36,0.55-3.33,1.09-5.92,1.63c0.13,0.27,0.34,0.34,0.61,0.2c2.31-0.27,3.6-0.41,3.88-0.41
		c0.95,0,4.21-0.13,9.79-0.41l0.82,0.41L490,75.68l-25.7,2.86c-9.38,0.95-17.89,1.56-25.5,1.84l-0.41,0.41
		c-0.14,0.14-1.56,4.15-4.28,12.04c-1.77,5.17-2.99,9.73-3.67,13.67c-2.04,13.33-1.16,24.01,2.65,32.03c7.07-4.21,10.4-6.32,10-6.32
		c0.54,0,1.43,0.71,2.65,2.14c1.22,1.43,2.11,2.21,2.65,2.35c0.27,0,0.41-0.07,0.41-0.2c0-0.13,0.13-0.13,0.41,0
		c0.27,0.14,0.68,0.54,1.22,1.22c0.82-0.68,5.17-2.99,13.06-6.94c-7.89,8.71-17.14,15.03-27.74,18.97
		c-0.55,0.27-0.82,0.55-0.82,0.82l0.41,0.61c2.72-0.13,9.52-3.4,20.4-9.79l-10.61,7.96c-6.8,4.9-11.29,7.14-13.46,6.73
		c-0.41,0-1.53-0.82-3.37-2.45c-1.84-1.63-2.82-2.65-2.96-3.06c-1.36,0.41-2.11,1.16-2.24,2.24l-2.45-0.41
		c-1.36-0.27-4.49-4.15-9.38-11.63c-1.91-2.99-2.86-8.91-2.86-17.75c0.13-6.39,0.68-12.65,1.63-18.77c0.27-1.77,2.04-9.25,5.3-22.44
		c-3.4,0.54-5.92,0.68-7.55,0.41c-0.95-0.13-2.52-0.68-4.69-1.63c-2.18-0.95-3.88-1.5-5.1-1.63l-5.51-0.82c-0.95,0-1.22,0-0.82,0
		c0-0.41,0.2-0.88,0.61-1.43c1.22-0.41,2.31-0.54,3.26-0.41c0.54,0.14,1.43,0.34,2.65,0.61c1.22,0.27,2.11,0.48,2.65,0.61l0.61-0.41
		c-0.27-0.41-1.16-1.02-2.65-1.84c0.68,0,1.84-0.07,3.47-0.2c-3.95-3.94-6.26-5.98-6.94-6.12c-0.41,0-1.7,0.14-3.88,0.41
		c0.13-0.41,0.48-0.54,1.02-0.41c0.13-0.13,0-0.41-0.41-0.82c1.09-1.09,2.17-2.17,3.26-3.26c2.86,0,4.35-0.48,4.49-1.43
		c0.27-1.22,0.07-1.84-0.61-1.84c-1.09-0.13-1.97-0.61-2.65-1.43c1.22-0.13,3.06-0.47,5.51-1.02l-0.61-0.82
		c0.82-0.41,2.11-1.09,3.88-2.04c0.27-0.41,0.2-0.61-0.2-0.61c0.82,0.14,1.29,0.41,1.43,0.82c0.95-0.27,1.56-1.09,1.84-2.45
		c0.95-0.41,2.31-0.75,4.08-1.02c2.58-0.27,6.46-0.75,11.63-1.43c0.54-1.09,2.17-5.85,4.9-14.28l0.41-2.86
		c0.13-0.54,0.75-1.9,1.84-4.08l0.2-2.04c0.41-1.09,1.15-2.79,2.24-5.1c0.13-0.54,0.41-1.36,0.82-2.45
		c1.09-1.22,1.84-2.38,2.24-3.47c1.63,1.09,3.47,2.38,5.51,3.88c0.82-0.68,1.97-1.63,3.47-2.86c0,0.54,0.54,2.11,1.63,4.69
		c0.54-1.22,1.43-3.26,2.65-6.12l1.02,0.41c0,1.09,0.48,2.79,1.43,5.1c0.27,1.91,0.41,3.95,0.41,6.12c0,3.4,0.13,4.97,0.41,4.69
		l-0.41,1.84h-0.61c-0.82,3.4-2.18,8.5-4.08,15.3c0.13,0.27,0.34,0.61,0.61,1.02c0.27,0,0.61-0.2,1.02-0.61
		c-0.14,0.54,0.07,0.89,0.61,1.02c0.95,0.14,2.51,0,4.69-0.41c1.9,0.14,4.96,0.2,9.18,0.2c5.3,0,8.36-0.07,9.18-0.2
		c-0.82,1.5-1.84,2.18-3.06,2.04l-3.06-0.41l-0.61,0.2c0.41,0.55,1.02,0.89,1.84,1.02c0.54,0,1.43-0.13,2.65-0.41
		c1.22-0.27,2.11-0.34,2.65-0.2c0.27,0,0.34,0.14,0.2,0.41c-0.14,0.27,0,0.41,0.41,0.41c-0.95-0.13,1.7-0.54,7.96-1.22
		c0.95,0,4.15,0,9.59,0c-0.41,0-1.33,0.31-2.75,0.92c-1.43,0.61-2.35,0.85-2.75,0.71c-2.99-0.41-5.65-0.2-7.96,0.61
		c0.41,0.54,0.82,0.82,1.22,0.82c6.39,1.09,8.98,1.36,7.75,0.82c0.41,0.54,1.5,1.97,3.26,4.28c0,0.41,0.07,0.82,0.2,1.22
		c1.09,0.54,1.43,0.75,1.02,0.61c0.95,0.14,2.85,0.14,5.71,0l0.41,0.41L497.96,64.87z M394.73,74.87l-2.86-0.41
		c0.41-0.13,0.82-0.34,1.22-0.61C393.64,74.53,394.19,74.87,394.73,74.87z M432.47,16.93c-0.82,0.54-1.29,0.82-1.43,0.82l-2.45-0.41
		c-0.14-0.13-0.31-0.41-0.51-0.82c-0.2-0.41-0.38-0.68-0.51-0.82c-0.82,0.14-1.5,0.65-2.04,1.53c-0.54,0.89-0.68,1.6-0.41,2.14
		c0.95,3.13,0.75,5.3-0.61,6.53c-1.22,0.82-2.99,1.97-5.3,3.47c-4.22,0.27-6.19,0.48-5.92,0.61c-0.82-0.13-1.43-0.64-1.84-1.53
		c-0.41-0.88-0.41-1.73,0-2.55c-0.41-0.54-0.95-1.43-1.63-2.65c-0.14-1.36-0.34-3.26-0.61-5.71c-0.95,0.82-1.7,1.16-2.24,1.02
		c-3.4-0.54-4.83-2.31-4.28-5.3c0.27-1.5,1.22-2.92,2.86-4.28c1.63-1.36,3.19-1.9,4.69-1.63c0.27,0,0.61,0.14,1.02,0.41
		c0.41,0.27,0.75,0.48,1.02,0.61c0.27,0,1.15-0.31,2.65-0.92c1.5-0.61,2.38-0.85,2.65-0.71c1.09,0.14,3.06,1.29,5.92,3.47
		c0.54,0.82,1.56,2.04,3.06,3.67c0.41-0.82,1.09-1.77,2.04-2.86c0.82-0.68,1.5-0.95,2.04-0.82c0.95,0.14,1.77,1.02,2.45,2.65
		L432.47,16.93z M413.3,35.5l-3.67-1.43l0.2-0.41l3.47,1.22V35.5z M416.36,44.68c-0.27,1.36-1.02,1.91-2.24,1.63
		c-2.18-0.27-3.6-1.36-4.28-3.26c0.68-1.5,1.5-2.17,2.45-2.04C415.27,41.41,416.63,42.64,416.36,44.68z M424.72,21.22l-0.41-0.61
		l-0.41,0.2l0.41,0.61L424.72,21.22z M431.45,25.5l-7.55,22.24l6.12-24.48C430.3,23.39,430.77,24.14,431.45,25.5z M435.74,120.16
		c-0.68,0-1.16-0.34-1.43-1.02c-0.41-1.5-0.48-3.06-0.2-4.69c-0.14,1.09,1.09-3.67,3.67-14.28c-0.41,1.91-0.71,5.13-0.92,9.69
		C436.65,114.41,436.28,117.84,435.74,120.16z M451.24,46.1l-0.82,3.26h-0.82l1.02-3.47L451.24,46.1z M453.48,21.22h-0.61l0.2-0.82
		h0.61L453.48,21.22z M465.93,22.03c-0.14,1.36-1.22,2.52-3.26,3.47c-0.41-0.54-0.61-0.95-0.61-1.22c0.13-0.54,0.64-1.29,1.53-2.24
		c0.88-0.95,1.6-1.5,2.14-1.63C466,20.81,466.06,21.35,465.93,22.03z M491.43,22.24c-1.22,0.82-2.18,1.16-2.86,1.02l-0.41-0.41
		l0.2-1.22c0.27-0.27,1.22-0.75,2.86-1.43l0.61,0.41L491.43,22.24z"/>
</g>
</svg>
